<svg width="18" height="18" viewBox="0 0 18 18" fill="none" xmlns="http://www.w3.org/2000/svg">
<g clip-path="url(#clip0_1090_3212)">
<path d="M17.2128 7.19989C17.0722 7.05929 16.8814 6.9803 16.6826 6.9803C16.4837 6.9803 16.293 7.05929 16.1523 7.19989L7.98332 15.4041C7.63511 15.7524 7.2217 16.0287 6.76672 16.2172C6.31173 16.4057 5.82407 16.5027 5.33159 16.5027C4.33696 16.5028 3.38305 16.1078 2.6797 15.4045C1.97634 14.7013 1.58116 13.7474 1.58109 12.7528C1.58102 11.7582 1.97607 10.8042 2.67932 10.1009L10.5911 2.15689C11.0141 1.74056 11.5846 1.50827 12.1781 1.51062C12.7717 1.51297 13.3403 1.74976 13.76 2.16942C14.1798 2.58909 14.4167 3.15762 14.4192 3.75118C14.4217 4.34473 14.1896 4.91523 13.7733 5.33839L5.86157 13.2824C5.71888 13.4191 5.52892 13.4954 5.33132 13.4954C5.13372 13.4954 4.94376 13.4191 4.80107 13.2824C4.66047 13.1417 4.58148 12.951 4.58148 12.7521C4.58148 12.5533 4.66047 12.3625 4.80107 12.2219L11.8451 5.14564C11.9817 5.00419 12.0573 4.81474 12.0556 4.61809C12.0539 4.42145 11.975 4.23334 11.8359 4.09428C11.6969 3.95522 11.5088 3.87635 11.3121 3.87464C11.1155 3.87293 10.926 3.94853 10.7846 4.08514L3.74057 11.1614C3.5316 11.3703 3.36583 11.6184 3.25274 11.8914C3.13964 12.1644 3.08143 12.457 3.08143 12.7525C3.08143 13.048 3.13964 13.3406 3.25274 13.6136C3.36583 13.8867 3.5316 14.1347 3.74057 14.3436C4.16929 14.7527 4.73911 14.981 5.3317 14.981C5.92429 14.981 6.49411 14.7527 6.92282 14.3436L14.8338 6.39889C15.5223 5.69262 15.9048 4.74353 15.8985 3.75722C15.8922 2.77091 15.4975 1.8268 14.8001 1.12941C14.1026 0.43202 13.1584 0.0375037 12.1721 0.0313237C11.1858 0.0251437 10.2367 0.407798 9.53057 1.09639L1.61882 9.04039C0.634206 10.025 0.0810547 11.3604 0.0810547 12.7529C0.0810547 14.1454 0.634206 15.4808 1.61882 16.4654C2.60344 17.45 3.93886 18.0032 5.33132 18.0032C6.72378 18.0032 8.05921 17.45 9.04382 16.4654L17.2128 8.26339C17.2829 8.1937 17.3385 8.11084 17.3764 8.01959C17.4144 7.92833 17.4339 7.83047 17.4339 7.73164C17.4339 7.63281 17.4144 7.53496 17.3764 7.4437C17.3385 7.35245 17.2829 7.26959 17.2128 7.19989Z" fill="#C1C1C1"/>
</g>
<defs>
<clipPath id="clip0_1090_3212">
<rect width="18" height="18" fill="white"/>
</clipPath>
</defs>
</svg>
