<svg width="20" height="20" viewBox="0 0 20 20" fill="none" xmlns="http://www.w3.org/2000/svg">
<path d="M19.3947 7.98079C19.2384 7.82456 19.0265 7.7368 18.8055 7.7368C18.5845 7.7368 18.3726 7.82456 18.2163 7.98079L9.13967 17.0966C8.75276 17.4836 8.29343 17.7905 7.78789 18C7.28235 18.2094 6.74051 18.3173 6.1933 18.3173C5.08816 18.3174 4.02826 17.8784 3.24676 17.097C2.46525 16.3156 2.02616 15.2558 2.02608 14.1507C2.02601 13.0455 2.46495 11.9856 3.24634 11.2041L12.0372 2.37745C12.5072 1.91486 13.1411 1.65676 13.8006 1.65937C14.4601 1.66198 15.0919 1.92508 15.5583 2.39137C16.0247 2.85767 16.2879 3.48937 16.2907 4.14888C16.2934 4.80838 16.0355 5.44227 15.573 5.91245L6.78217 14.7391C6.62363 14.891 6.41256 14.9758 6.19301 14.9758C5.97345 14.9758 5.76238 14.891 5.60384 14.7391C5.44761 14.5828 5.35985 14.3709 5.35985 14.15C5.35985 13.929 5.44761 13.7171 5.60384 13.5608L13.4305 5.69829C13.5823 5.54112 13.6663 5.33062 13.6644 5.11212C13.6625 4.89362 13.5749 4.68461 13.4204 4.5301C13.2658 4.3756 13.0568 4.28796 12.8383 4.28606C12.6198 4.28416 12.4093 4.36815 12.2522 4.51995L4.42551 12.3825C4.19331 12.6146 4.00913 12.8902 3.88346 13.1936C3.7578 13.4969 3.69312 13.822 3.69312 14.1504C3.69312 14.4787 3.7578 14.8038 3.88346 15.1072C4.00913 15.4105 4.19331 15.6861 4.42551 15.9183C4.90185 16.3728 5.53499 16.6265 6.19342 16.6265C6.85186 16.6265 7.48499 16.3728 7.96134 15.9183L16.7513 7.09079C17.5163 6.30604 17.9414 5.2515 17.9343 4.1556C17.9273 3.0597 17.4888 2.01068 16.7138 1.23581C15.9388 0.460926 14.8898 0.0225735 13.7939 0.0157069C12.698 0.00884026 11.6435 0.434012 10.8588 1.19912L2.06801 10.0258C0.973988 11.1198 0.359375 12.6036 0.359375 14.1508C0.359375 15.698 0.973988 17.1818 2.06801 18.2758C3.16202 19.3698 4.64583 19.9844 6.19301 19.9844C7.74018 19.9844 9.22399 19.3698 10.318 18.2758L19.3947 9.16245C19.4725 9.08501 19.5343 8.99295 19.5765 8.89155C19.6186 8.79016 19.6403 8.68143 19.6403 8.57162C19.6403 8.46181 19.6186 8.35308 19.5765 8.25169C19.5343 8.15029 19.4725 8.05823 19.3947 7.98079Z" fill="#4E4E4E"/>
</svg>
