<svg width="24" height="24" viewBox="0 0 24 24" fill="none" xmlns="http://www.w3.org/2000/svg">
<path d="M4.1537 15.7683L7.25217 15.7683L7.25217 8.67316L4.15501 8.67316C4.06906 8.67301 3.98391 8.68744 3.90445 8.71562C3.82499 8.74381 3.75277 8.78519 3.69193 8.83741C3.63109 8.88963 3.58282 8.95165 3.54988 9.01993C3.51695 9.08821 3.5 9.16141 3.5 9.23533L3.5 15.2061C3.5 15.3552 3.56887 15.4982 3.69146 15.6037C3.81406 15.7091 3.98033 15.7683 4.1537 15.7683Z" stroke="#6C6C6C" stroke-width="1.25" stroke-linecap="round" stroke-linejoin="round"/>
<path d="M7.26415 8.64041L8.20648 8.23578C8.57155 8.07937 8.97352 7.99889 9.38208 8.00003L17.9605 8.00003C18.3238 8.00042 18.6744 8.11489 18.9465 8.32193C19.2185 8.52897 19.3933 8.81432 19.4379 9.12437L20.4831 14.9263C20.5148 15.1068 20.5017 15.2911 20.4447 15.4669C20.3876 15.6428 20.2879 15.8062 20.152 15.9465C20.0162 16.0868 19.8473 16.2007 19.6565 16.2808C19.4657 16.3609 19.2574 16.4053 19.0452 16.4111L13.3043 16.4111L13.3043 19.6832C13.3024 19.8498 13.2619 20.0144 13.1849 20.1674C13.1079 20.3203 12.9961 20.4583 12.8561 20.5735C12.716 20.6886 12.5506 20.7785 12.3695 20.8378C12.1885 20.8971 11.9954 20.9246 11.8018 20.9186C11.5556 20.9209 11.3128 20.8682 11.0973 20.7657C10.8818 20.6632 10.7009 20.5144 10.5722 20.3338L7.25098 15.7684L7.25098 8.67327" stroke="#6C6C6C" stroke-width="1.25" stroke-linecap="round" stroke-linejoin="round"/>
</svg>
