<svg width="24" height="24" viewBox="0 0 24 24" fill="none" xmlns="http://www.w3.org/2000/svg">
<path d="M4.15365 9.15039H7.2519V16.245H4.15497C4.06902 16.2452 3.98388 16.2308 3.90442 16.2026C3.82497 16.1744 3.75275 16.133 3.69192 16.0808C3.63108 16.0286 3.58281 15.9666 3.54988 15.8983C3.51695 15.83 3.5 15.7568 3.5 15.6829V9.71252C3.5 9.56344 3.56887 9.42046 3.69145 9.31504C3.81403 9.20962 3.98029 9.15039 4.15365 9.15039Z" stroke="#6C6C6C" stroke-width="1.25" stroke-linecap="round" stroke-linejoin="round"/>
<path d="M7.26513 16.2782L8.20739 16.6828C8.57243 16.8392 8.97437 16.9196 9.38291 16.9185H17.9607C18.324 16.9181 18.6746 16.8036 18.9466 16.5966C19.2186 16.3896 19.3934 16.1042 19.438 15.7942L20.4831 9.9927C20.5149 9.8122 20.5018 9.62796 20.4447 9.45213C20.3877 9.27629 20.2879 9.11285 20.1521 8.97257C20.0162 8.83229 19.8474 8.71836 19.6566 8.63829C19.4658 8.55822 19.2575 8.51383 19.0453 8.50804H13.3048V5.23612C13.303 5.06952 13.2624 4.90492 13.1854 4.75203C13.1085 4.59914 12.9967 4.46105 12.8566 4.34591C12.7166 4.23078 12.5512 4.14092 12.3701 4.08165C12.1891 4.02237 11.9961 3.99488 11.8025 4.00079C11.5562 3.99856 11.3135 4.05126 11.098 4.15375C10.8825 4.25625 10.7016 4.40503 10.5729 4.58558L7.25195 9.15064V16.2453" stroke="#6C6C6C" stroke-width="1.25" stroke-linecap="round" stroke-linejoin="round"/>
</svg>
