<svg width="18" height="18" viewBox="0 0 18 18" fill="none" xmlns="http://www.w3.org/2000/svg">
<path d="M14.25 0H3.75C2.7558 0.00119089 1.80267 0.396661 1.09966 1.09966C0.396661 1.80267 0.00119089 2.7558 0 3.75L0 14.25C0.00119089 15.2442 0.396661 16.1973 1.09966 16.9003C1.80267 17.6033 2.7558 17.9988 3.75 18H14.25C15.2442 17.9988 16.1973 17.6033 16.9003 16.9003C17.6033 16.1973 17.9988 15.2442 18 14.25V3.75C17.9988 2.7558 17.6033 1.80267 16.9003 1.09966C16.1973 0.396661 15.2442 0.00119089 14.25 0V0ZM3.75 1.5H14.25C14.8467 1.5 15.419 1.73705 15.841 2.15901C16.2629 2.58097 16.5 3.15326 16.5 3.75V14.25C16.4987 14.5841 16.4218 14.9136 16.275 15.2137L9.40275 8.3415C9.05452 7.99318 8.64108 7.71686 8.18604 7.52835C7.73101 7.33983 7.24329 7.2428 6.75075 7.2428C6.25821 7.2428 5.77049 7.33983 5.31546 7.52835C4.86042 7.71686 4.44698 7.99318 4.09875 8.3415L1.5 10.9395V3.75C1.5 3.15326 1.73705 2.58097 2.15901 2.15901C2.58097 1.73705 3.15326 1.5 3.75 1.5ZM3.75 16.5C3.15326 16.5 2.58097 16.2629 2.15901 15.841C1.73705 15.419 1.5 14.8467 1.5 14.25V13.0605L5.1585 9.402C5.36745 9.19292 5.61555 9.02705 5.88863 8.91389C6.16171 8.80073 6.4544 8.74248 6.75 8.74248C7.0456 8.74248 7.33829 8.80073 7.61137 8.91389C7.88445 9.02705 8.13255 9.19292 8.3415 9.402L15.2137 16.275C14.9136 16.4218 14.5841 16.4987 14.25 16.5H3.75Z" fill="#C1C1C1"/>
<path d="M12 7.87476C12.5192 7.87476 13.0267 7.7208 13.4584 7.43237C13.8901 7.14393 14.2265 6.73396 14.4252 6.2543C14.6239 5.77464 14.6758 5.24685 14.5746 4.73765C14.4733 4.22845 14.2233 3.76071 13.8562 3.3936C13.489 3.02649 13.0213 2.77648 12.5121 2.6752C12.0029 2.57391 11.4751 2.62589 10.9955 2.82457C10.5158 3.02325 10.1058 3.35971 9.81739 3.79139C9.52895 4.22306 9.375 4.73058 9.375 5.24976C9.375 5.94595 9.65156 6.61363 10.1438 7.10591C10.6361 7.5982 11.3038 7.87476 12 7.87476ZM12 4.12476C12.2225 4.12476 12.44 4.19074 12.625 4.31435C12.81 4.43797 12.9542 4.61367 13.0394 4.81924C13.1245 5.02481 13.1468 5.25101 13.1034 5.46923C13.06 5.68746 12.9528 5.88792 12.7955 6.04525C12.6382 6.20259 12.4377 6.30973 12.2195 6.35314C12.0012 6.39655 11.775 6.37427 11.5695 6.28912C11.3639 6.20397 11.1882 6.05978 11.0646 5.87477C10.941 5.68977 10.875 5.47226 10.875 5.24976C10.875 4.95139 10.9935 4.66524 11.2045 4.45426C11.4155 4.24328 11.7016 4.12476 12 4.12476Z" fill="#C1C1C1"/>
</svg>
