<svg width="24" height="24" viewBox="0 0 24 24" fill="none" xmlns="http://www.w3.org/2000/svg">
<path d="M17.8333 2H6.16667C5.062 2.00132 4.00296 2.44073 3.22185 3.22185C2.44073 4.00296 2.00132 5.062 2 6.16667L2 17.8333C2.00132 18.938 2.44073 19.997 3.22185 20.7782C4.00296 21.5593 5.062 21.9987 6.16667 22H17.8333C18.938 21.9987 19.997 21.5593 20.7782 20.7782C21.5593 19.997 21.9987 18.938 22 17.8333V6.16667C21.9987 5.062 21.5593 4.00296 20.7782 3.22185C19.997 2.44073 18.938 2.00132 17.8333 2V2ZM6.16667 3.66667H17.8333C18.4964 3.66667 19.1323 3.93006 19.6011 4.3989C20.0699 4.86774 20.3333 5.50363 20.3333 6.16667V17.8333C20.3319 18.2046 20.2464 18.5707 20.0833 18.9042L12.4475 11.2683C12.0606 10.8813 11.6012 10.5743 11.0956 10.3648C10.59 10.1554 10.0481 10.0476 9.50083 10.0476C8.95357 10.0476 8.41166 10.1554 7.90606 10.3648C7.40047 10.5743 6.94109 10.8813 6.55417 11.2683L3.66667 14.155V6.16667C3.66667 5.50363 3.93006 4.86774 4.3989 4.3989C4.86774 3.93006 5.50363 3.66667 6.16667 3.66667ZM6.16667 20.3333C5.50363 20.3333 4.86774 20.0699 4.3989 19.6011C3.93006 19.1323 3.66667 18.4964 3.66667 17.8333V16.5117L7.73167 12.4467C7.96383 12.2144 8.2395 12.0301 8.54292 11.9043C8.84634 11.7786 9.17156 11.7139 9.5 11.7139C9.82844 11.7139 10.1537 11.7786 10.4571 11.9043C10.7605 12.0301 11.0362 12.2144 11.2683 12.4467L18.9042 20.0833C18.5707 20.2464 18.2046 20.3319 17.8333 20.3333H6.16667Z" fill="#4E4E4E"/>
<path d="M15.3366 10.7533C15.9135 10.7533 16.4774 10.5822 16.957 10.2617C17.4366 9.94122 17.8105 9.4857 18.0312 8.95275C18.252 8.4198 18.3098 7.83335 18.1972 7.26758C18.0847 6.7018 17.8069 6.1821 17.399 5.7742C16.9911 5.36629 16.4714 5.08851 15.9056 4.97597C15.3398 4.86343 14.7534 4.92119 14.2204 5.14194C13.6875 5.3627 13.232 5.73653 12.9115 6.21618C12.591 6.69582 12.4199 7.25973 12.4199 7.83659C12.4199 8.61014 12.7272 9.352 13.2742 9.89898C13.8212 10.446 14.563 10.7533 15.3366 10.7533ZM15.3366 6.58659C15.5838 6.58659 15.8255 6.6599 16.0311 6.79725C16.2366 6.9346 16.3968 7.12983 16.4914 7.35824C16.586 7.58664 16.6108 7.83798 16.5626 8.08045C16.5143 8.32293 16.3953 8.54566 16.2205 8.72047C16.0457 8.89529 15.8229 9.01434 15.5805 9.06257C15.338 9.1108 15.0866 9.08605 14.8582 8.99144C14.6298 8.89683 14.4346 8.73661 14.2973 8.53105C14.1599 8.32549 14.0866 8.08382 14.0866 7.83659C14.0866 7.50507 14.2183 7.18713 14.4527 6.95271C14.6871 6.71829 15.0051 6.58659 15.3366 6.58659Z" fill="#4E4E4E"/>
</svg>
