<svg width="20" height="20" viewBox="0 0 20 20" fill="none" xmlns="http://www.w3.org/2000/svg">
<g id="Group 1">
<path id="Vector" d="M19.1731 3.39738C18.9387 3.11608 18.6452 2.88984 18.3136 2.73472C17.9819 2.57961 17.6201 2.49943 17.2539 2.49988H3.78061L3.74561 2.20738C3.67398 1.59939 3.38176 1.03882 2.92435 0.631943C2.46693 0.225064 1.87613 0.000162758 1.26394 -0.00012207L1.07894 -0.00012207C0.857925 -0.00012207 0.645963 0.0876753 0.489683 0.243956C0.333403 0.400236 0.245605 0.612198 0.245605 0.833211C0.245605 1.05422 0.333403 1.26619 0.489683 1.42247C0.645963 1.57875 0.857925 1.66654 1.07894 1.66654H1.26394C1.46805 1.66657 1.66505 1.74151 1.81758 1.87714C1.97011 2.01277 2.06756 2.19967 2.09144 2.40238L3.23811 12.1524C3.35715 13.1664 3.84434 14.1014 4.6072 14.7799C5.37005 15.4584 6.35548 15.8332 7.37644 15.8332H16.0789C16.3 15.8332 16.5119 15.7454 16.6682 15.5891C16.8245 15.4329 16.9123 15.2209 16.9123 14.9999C16.9123 14.7789 16.8245 14.5669 16.6682 14.4106C16.5119 14.2543 16.3 14.1665 16.0789 14.1665H7.37644C6.86065 14.1651 6.35794 14.0041 5.93722 13.7058C5.5165 13.4074 5.19837 12.9862 5.02644 12.4999H14.9598C15.9367 12.4999 16.8826 12.1567 17.6321 11.5302C18.3817 10.9037 18.8873 10.0338 19.0606 9.07238L19.7148 5.44404C19.7801 5.08405 19.7654 4.7141 19.6718 4.36041C19.5782 4.00672 19.4079 3.67794 19.1731 3.39738ZM18.0789 5.14821L17.4239 8.77654C17.3199 9.35404 17.016 9.87654 16.5655 10.2525C16.115 10.6285 15.5466 10.8341 14.9598 10.8332H4.76144L3.97727 4.16654H17.2539C17.3764 4.16581 17.4974 4.19206 17.6086 4.24342C17.7197 4.29479 17.8181 4.37 17.8969 4.46372C17.9756 4.55743 18.0328 4.66735 18.0642 4.78566C18.0957 4.90396 18.1007 5.02775 18.0789 5.14821Z" fill="#262626"/>
<path id="Vector_2" d="M6.07926 20.0002C6.99973 20.0002 7.74592 19.254 7.74592 18.3335C7.74592 17.4131 6.99973 16.6669 6.07926 16.6669C5.15879 16.6669 4.4126 17.4131 4.4126 18.3335C4.4126 19.254 5.15879 20.0002 6.07926 20.0002Z" fill="#262626"/>
<path id="Vector_3" d="M14.4123 20.0002C15.3327 20.0002 16.0789 19.254 16.0789 18.3335C16.0789 17.4131 15.3327 16.6669 14.4123 16.6669C13.4918 16.6669 12.7456 17.4131 12.7456 18.3335C12.7456 19.254 13.4918 20.0002 14.4123 20.0002Z" fill="#262626"/>
</g>
</svg>
