<svg width="24" height="24" viewBox="0 0 24 24" fill="none" xmlns="http://www.w3.org/2000/svg">
<path d="M3.50016 11.5H12.6668C13.1089 11.5 13.5328 11.3244 13.8453 11.0119C14.1579 10.6993 14.3335 10.2754 14.3335 9.83337V4.00004C14.3335 3.55801 14.1579 3.13409 13.8453 2.82153C13.5328 2.50897 13.1089 2.33337 12.6668 2.33337H3.50016C3.05814 2.33337 2.63421 2.50897 2.32165 2.82153C2.00909 3.13409 1.8335 3.55801 1.8335 4.00004L1.8335 9.83337C1.8335 10.2754 2.00909 10.6993 2.32165 11.0119C2.63421 11.3244 3.05814 11.5 3.50016 11.5ZM3.50016 4.00004H12.6668V9.83337H3.50016V4.00004Z" fill="#262626"/>
<path d="M20.5002 2.33337H18.0002C17.5581 2.33337 17.1342 2.50897 16.8217 2.82153C16.5091 3.13409 16.3335 3.55801 16.3335 4.00004V9.83337C16.3335 10.2754 16.5091 10.6993 16.8217 11.0119C17.1342 11.3244 17.5581 11.5 18.0002 11.5H20.5002C20.9422 11.5 21.3661 11.3244 21.6787 11.0119C21.9912 10.6993 22.1668 10.2754 22.1668 9.83337V4.00004C22.1668 3.55801 21.9912 3.13409 21.6787 2.82153C21.3661 2.50897 20.9422 2.33337 20.5002 2.33337V2.33337ZM20.5002 9.83337H18.0002V4.00004H20.5002V9.83337Z" fill="#262626"/>
<path d="M6.00016 12.5H3.50016C3.05814 12.5 2.63421 12.6756 2.32165 12.9882C2.00909 13.3007 1.8335 13.7246 1.8335 14.1667L1.8335 20C1.8335 20.442 2.00909 20.8659 2.32165 21.1785C2.63421 21.4911 3.05814 21.6667 3.50016 21.6667H6.00016C6.44219 21.6667 6.86611 21.4911 7.17867 21.1785C7.49124 20.8659 7.66683 20.442 7.66683 20V14.1667C7.66683 13.7246 7.49124 13.3007 7.17867 12.9882C6.86611 12.6756 6.44219 12.5 6.00016 12.5ZM6.00016 20H3.50016V14.1667H6.00016V20Z" fill="#262626"/>
<path d="M20.4998 12.5H11.3332C10.8911 12.5 10.4672 12.6756 10.1547 12.9882C9.8421 13.3007 9.6665 13.7246 9.6665 14.1667V20C9.6665 20.442 9.8421 20.8659 10.1547 21.1785C10.4672 21.4911 10.8911 21.6667 11.3332 21.6667H20.4998C20.9419 21.6667 21.3658 21.4911 21.6783 21.1785C21.9909 20.8659 22.1665 20.442 22.1665 20V14.1667C22.1665 13.7246 21.9909 13.3007 21.6783 12.9882C21.3658 12.6756 20.9419 12.5 20.4998 12.5ZM20.4998 20H11.3332V14.1667H20.4998V20Z" fill="#262626"/>
</svg>
