<svg width="24" height="24" viewBox="0 0 24 24" fill="none" xmlns="http://www.w3.org/2000/svg">
<g clip-path="url(#clip0_807_546)">
<path d="M19.514 10.0312C18.9122 9.04567 18.153 8.16536 17.2667 7.42519L19.1334 5.55852C19.2548 5.43278 19.322 5.26438 19.3205 5.08958C19.319 4.91479 19.2489 4.74758 19.1252 4.62397C19.0016 4.50037 18.8344 4.43026 18.6596 4.42874C18.4848 4.42722 18.3164 4.49441 18.1907 4.61585L16.1607 6.64852C14.9023 5.90107 13.4636 5.51149 12 5.52185C7.8727 5.52185 5.5207 8.34719 4.48603 10.0312C4.16639 10.5482 3.99707 11.144 3.99707 11.7519C3.99707 12.3597 4.16639 12.9555 4.48603 13.4725C5.08787 14.458 5.84703 15.3383 6.73337 16.0785L4.8667 17.9452C4.80303 18.0067 4.75224 18.0802 4.7173 18.1616C4.68236 18.2429 4.66397 18.3304 4.6632 18.4189C4.66243 18.5074 4.6793 18.5952 4.71282 18.6772C4.74634 18.7591 4.79584 18.8335 4.85844 18.8961C4.92103 18.9587 4.99547 19.0082 5.0774 19.0417C5.15933 19.0753 5.24712 19.0921 5.33564 19.0914C5.42415 19.0906 5.51163 19.0722 5.59297 19.0373C5.67431 19.0023 5.74787 18.9515 5.80937 18.8879L7.84403 16.8532C9.10088 17.6005 10.5378 17.9908 12 17.9819C16.1274 17.9819 18.4794 15.1565 19.514 13.4725C19.8337 12.9555 20.003 12.3597 20.003 11.7519C20.003 11.144 19.8337 10.5482 19.514 10.0312ZM5.62203 12.7745C5.43212 12.4672 5.33153 12.1131 5.33153 11.7519C5.33153 11.3906 5.43212 11.0365 5.62203 10.7292C6.51137 9.28519 8.52137 6.85519 12 6.85519C13.1069 6.84898 14.1982 7.11574 15.1774 7.63185L13.8354 8.97385C13.1953 8.54892 12.428 8.35852 11.6635 8.43495C10.8991 8.51138 10.1846 8.84994 9.64137 9.39319C9.09813 9.93643 8.75956 10.6509 8.68313 11.4153C8.6067 12.1798 8.7971 12.9471 9.22203 13.5872L7.68203 15.1272C6.86544 14.467 6.16859 13.6712 5.62203 12.7745ZM14 11.7519C14 12.2823 13.7893 12.791 13.4142 13.1661C13.0392 13.5411 12.5305 13.7519 12 13.7519C11.703 13.7507 11.4102 13.6823 11.1434 13.5519L13.8 10.8952C13.9305 11.162 13.9989 11.4549 14 11.7519ZM10 11.7519C10 11.2214 10.2107 10.7127 10.5858 10.3376C10.9609 9.96257 11.4696 9.75185 12 9.75185C12.297 9.753 12.5899 9.82138 12.8567 9.95185L10.2 12.6085C10.0696 12.3417 10.0012 12.0488 10 11.7519ZM18.378 12.7745C17.4887 14.2185 15.4787 16.6485 12 16.6485C10.8932 16.6547 9.80188 16.388 8.8227 15.8719L10.1647 14.5299C10.8047 14.9548 11.5721 15.1452 12.3365 15.0688C13.101 14.9923 13.8155 14.6538 14.3587 14.1105C14.9019 13.5673 15.2405 12.8528 15.3169 12.0884C15.3934 11.3239 15.203 10.5566 14.778 9.91652L16.318 8.37652C17.1346 9.03671 17.8315 9.83255 18.378 10.7292C18.5679 11.0365 18.6685 11.3906 18.6685 11.7519C18.6685 12.1131 18.5679 12.4672 18.378 12.7745Z" fill="#C1C1C1"/>
</g>
<defs>
<clipPath id="clip0_807_546">
<rect width="18" height="16" fill="white" transform="translate(3 3.99976)"/>
</clipPath>
</defs>
</svg>
