<svg width="20" height="20" viewBox="0 0 20 20" fill="none" xmlns="http://www.w3.org/2000/svg">
<path id="Vector" d="M18.7175 1.28257C18.445 1.01019 18.0756 0.857178 17.6903 0.857178C17.305 0.857178 16.9355 1.01019 16.6631 1.28257L10 7.94562L3.33699 1.28257C3.06453 1.01019 2.69504 0.857178 2.30978 0.857178C1.92452 0.857178 1.55503 1.01019 1.28257 1.28257C1.01019 1.55503 0.857178 1.92452 0.857178 2.30978C0.857178 2.69504 1.01019 3.06453 1.28257 3.33699L7.94562 10L1.28257 16.6631C1.01019 16.9355 0.857178 17.305 0.857178 17.6903C0.857178 18.0756 1.01019 18.445 1.28257 18.7175C1.55503 18.9899 1.92452 19.1429 2.30978 19.1429C2.69504 19.1429 3.06453 18.9899 3.33699 18.7175L10 12.0545L16.6631 18.7175C16.9355 18.9899 17.305 19.1429 17.6903 19.1429C18.0756 19.1429 18.445 18.9899 18.7175 18.7175C18.9899 18.445 19.1429 18.0756 19.1429 17.6903C19.1429 17.305 18.9899 16.9355 18.7175 16.6631L12.0545 10L18.7175 3.33699C18.9899 3.06453 19.1429 2.69504 19.1429 2.30978C19.1429 1.92452 18.9899 1.55503 18.7175 1.28257Z" fill="#4E4E4E"/>
</svg>
