<svg width="15" height="16" viewBox="0 0 15 16" fill="none" xmlns="http://www.w3.org/2000/svg">
<g id="fi-rr-comment">
<path id="Vector" d="M14.9997 8.02973C14.9093 6.56724 14.393 5.16317 13.5142 3.99062C12.6355 2.81806 11.4329 1.92829 10.0546 1.43097C8.67625 0.933663 7.18254 0.850561 5.75758 1.19191C4.33262 1.53326 3.03869 2.28415 2.03532 3.35199C1.03195 4.41983 0.363004 5.75795 0.110943 7.20139C-0.141119 8.64482 0.0347267 10.1305 0.616802 11.4752C1.19888 12.8199 2.16173 13.9649 3.38667 14.7689C4.61161 15.573 6.04508 16.0011 7.51035 16.0004H11.8747C12.7033 15.9995 13.4977 15.67 14.0835 15.0841C14.6694 14.4983 14.9989 13.7039 14.9997 12.8754V8.02973ZM13.7497 12.8754C13.7497 13.3726 13.5522 13.8495 13.2006 14.2012C12.8489 14.5528 12.372 14.7504 11.8747 14.7504H7.51035C6.62844 14.75 5.75651 14.5637 4.95142 14.2037C4.14632 13.8437 3.42615 13.318 2.83785 12.661C2.24671 12.0043 1.80281 11.2288 1.53591 10.3865C1.26901 9.54417 1.18529 8.65454 1.29035 7.77723C1.45625 6.39344 2.07797 5.10422 3.0575 4.1128C4.03704 3.12139 5.31867 2.48417 6.70035 2.3016C6.96988 2.26782 7.24123 2.25071 7.51286 2.25035C8.9694 2.24638 10.3809 2.75529 11.4997 3.68785C12.1532 4.23094 12.6895 4.90107 13.0763 5.65762C13.4631 6.41417 13.6922 7.24138 13.7497 8.0891V12.8754Z" fill="#6C6C6C"/>
<path id="Vector_2" d="M5 6.625H7.5C7.66576 6.625 7.82473 6.55915 7.94194 6.44194C8.05915 6.32473 8.125 6.16576 8.125 6C8.125 5.83424 8.05915 5.67527 7.94194 5.55806C7.82473 5.44085 7.66576 5.375 7.5 5.375H5C4.83424 5.375 4.67527 5.44085 4.55806 5.55806C4.44085 5.67527 4.375 5.83424 4.375 6C4.375 6.16576 4.44085 6.32473 4.55806 6.44194C4.67527 6.55915 4.83424 6.625 5 6.625Z" fill="#6C6C6C"/>
<path id="Vector_3" d="M10 7.875H5C4.83424 7.875 4.67527 7.94085 4.55806 8.05806C4.44085 8.17527 4.375 8.33424 4.375 8.5C4.375 8.66576 4.44085 8.82474 4.55806 8.94195C4.67527 9.05916 4.83424 9.12501 5 9.12501H10C10.1658 9.12501 10.3247 9.05916 10.4419 8.94195C10.5592 8.82474 10.625 8.66576 10.625 8.5C10.625 8.33424 10.5592 8.17527 10.4419 8.05806C10.3247 7.94085 10.1658 7.875 10 7.875Z" fill="#6C6C6C"/>
<path id="Vector_4" d="M10 10.375H5C4.83424 10.375 4.67527 10.4408 4.55806 10.5581C4.44085 10.6753 4.375 10.8342 4.375 11C4.375 11.1658 4.44085 11.3247 4.55806 11.4419C4.67527 11.5592 4.83424 11.625 5 11.625H10C10.1658 11.625 10.3247 11.5592 10.4419 11.4419C10.5592 11.3247 10.625 11.1658 10.625 11C10.625 10.8342 10.5592 10.6753 10.4419 10.5581C10.3247 10.4408 10.1658 10.375 10 10.375Z" fill="#6C6C6C"/>
</g>
</svg>
