<svg width="26" height="26" viewBox="0 0 26 26" fill="none" xmlns="http://www.w3.org/2000/svg">
<path id="Vector" d="M12.7344 2.0625C12.7344 1.6481 12.899 1.25067 13.192 0.957646C13.485 0.66462 13.8825 0.5 14.2969 0.5L23.6719 0.5C24.0863 0.5 24.4837 0.66462 24.7767 0.957646C25.0698 1.25067 25.2344 1.6481 25.2344 2.0625V23.9375C25.2344 24.3519 25.0698 24.7493 24.7767 25.0424C24.4837 25.3354 24.0863 25.5 23.6719 25.5H14.2969C13.8825 25.5 13.485 25.3354 13.192 25.0424C12.899 24.7493 12.7344 24.3519 12.7344 23.9375V2.0625ZM14.2969 23.1562C14.2969 23.3635 14.3792 23.5622 14.5257 23.7087C14.6722 23.8552 14.8709 23.9375 15.0781 23.9375C15.2853 23.9375 15.484 23.8552 15.6306 23.7087C15.7771 23.5622 15.8594 23.3635 15.8594 23.1562C15.8594 22.949 15.7771 22.7503 15.6306 22.6038C15.484 22.4573 15.2853 22.375 15.0781 22.375C14.8709 22.375 14.6722 22.4573 14.5257 22.6038C14.3792 22.7503 14.2969 22.949 14.2969 23.1562ZM17.4219 23.1562C17.4219 23.3635 17.5042 23.5622 17.6507 23.7087C17.7972 23.8552 17.9959 23.9375 18.2031 23.9375C18.4103 23.9375 18.609 23.8552 18.7556 23.7087C18.9021 23.5622 18.9844 23.3635 18.9844 23.1562C18.9844 22.949 18.9021 22.7503 18.7556 22.6038C18.609 22.4573 18.4103 22.375 18.2031 22.375C17.9959 22.375 17.7972 22.4573 17.6507 22.6038C17.5042 22.7503 17.4219 22.949 17.4219 23.1562ZM15.0781 2.0625C14.8709 2.0625 14.6722 2.14481 14.5257 2.29132C14.3792 2.43784 14.2969 2.63655 14.2969 2.84375C14.2969 3.05095 14.3792 3.24966 14.5257 3.39618C14.6722 3.54269 14.8709 3.625 15.0781 3.625H22.8906C23.0978 3.625 23.2965 3.54269 23.4431 3.39618C23.5896 3.24966 23.6719 3.05095 23.6719 2.84375C23.6719 2.63655 23.5896 2.43784 23.4431 2.29132C23.2965 2.14481 23.0978 2.0625 22.8906 2.0625H15.0781ZM14.2969 5.96875C14.2969 6.17595 14.3792 6.37466 14.5257 6.52118C14.6722 6.66769 14.8709 6.75 15.0781 6.75H22.8906C23.0978 6.75 23.2965 6.66769 23.4431 6.52118C23.5896 6.37466 23.6719 6.17595 23.6719 5.96875C23.6719 5.76155 23.5896 5.56284 23.4431 5.41632C23.2965 5.26981 23.0978 5.1875 22.8906 5.1875H15.0781C14.8709 5.1875 14.6722 5.26981 14.5257 5.41632C14.3792 5.56284 14.2969 5.76155 14.2969 5.96875ZM2.57812 3.625C1.95652 3.625 1.36038 3.87193 0.920843 4.31147C0.481305 4.75101 0.234375 5.34715 0.234375 5.96875L0.234375 16.9062C0.234375 17.5279 0.481305 18.124 0.920843 18.5635C1.36038 19.0031 1.95652 19.25 2.57812 19.25H9.60938V22.375H8.82812C8.62092 22.375 8.42221 22.4573 8.2757 22.6038C8.12919 22.7503 8.04688 22.949 8.04688 23.1562C8.04688 23.3635 8.12919 23.5622 8.2757 23.7087C8.42221 23.8552 8.62092 23.9375 8.82812 23.9375H11.1719V17.6875H2.57812C2.37092 17.6875 2.17221 17.6052 2.0257 17.4587C1.87918 17.3122 1.79688 17.1135 1.79688 16.9062V5.96875C1.79688 5.76155 1.87918 5.56284 2.0257 5.41632C2.17221 5.26981 2.37092 5.1875 2.57812 5.1875H11.1719V3.625H2.57812Z" fill="black" stroke="black" stroke-width="0.4"/>
</svg>
