<svg width="11" height="11" viewBox="0 0 11 11" fill="none" xmlns="http://www.w3.org/2000/svg">
<g id="Group">
<path id="Vector" fill-rule="evenodd" clip-rule="evenodd" d="M6.47161 3.9641C5.85812 3.89608 5.23898 3.89608 4.62549 3.9641C4.16703 4.01515 3.79535 4.37662 3.74123 4.8407C3.66841 5.46348 3.66841 6.09263 3.74123 6.71541C3.79535 7.18 4.16703 7.54044 4.62549 7.59201C5.23406 7.65991 5.86304 7.65991 6.47161 7.59201C6.69626 7.56702 6.90586 7.46682 7.06639 7.30769C7.22691 7.14856 7.32893 6.93983 7.35587 6.71541C7.42887 6.09255 7.42887 5.46356 7.35587 4.8407C7.32893 4.61628 7.22691 4.40755 7.06639 4.24842C6.90586 4.08928 6.69626 3.98909 6.47161 3.9641ZM4.71024 4.72532C5.26265 4.66405 5.83445 4.66405 6.38686 4.72532C6.43948 4.73113 6.48863 4.7544 6.52648 4.79142C6.56433 4.82843 6.58869 4.87706 6.59567 4.92953C6.66153 5.49317 6.66153 6.06294 6.59567 6.62657C6.58866 6.67913 6.56423 6.72781 6.52628 6.76484C6.48833 6.80186 6.43906 6.82508 6.38635 6.83079C5.82935 6.89245 5.26724 6.89245 4.71024 6.83079C4.65762 6.82498 4.60847 6.80171 4.57062 6.76469C4.53277 6.72768 4.50841 6.67905 4.50143 6.62657C4.43557 6.06281 4.43557 5.4933 4.50143 4.92953C4.50843 4.87698 4.53287 4.8283 4.57082 4.79127C4.60877 4.75425 4.65804 4.73102 4.71075 4.72532H4.71024Z" fill="black"/>
<path id="Vector_2" fill-rule="evenodd" clip-rule="evenodd" d="M7.46174 1.18369C7.46174 1.08213 7.42139 0.984741 7.34958 0.912932C7.27778 0.841123 7.18038 0.800781 7.07883 0.800781C6.97728 0.800781 6.87988 0.841123 6.80807 0.912932C6.73627 0.984741 6.69592 1.08213 6.69592 1.18369V2.47229C6.44097 2.4544 6.18563 2.44248 5.93011 2.43656V1.69423C5.93011 1.59268 5.88977 1.49528 5.81796 1.42347C5.74615 1.35166 5.64876 1.31132 5.54721 1.31132C5.44565 1.31132 5.34826 1.35166 5.27645 1.42347C5.20464 1.49528 5.1643 1.59268 5.1643 1.69423V2.43656C4.90878 2.44248 4.65344 2.4544 4.39849 2.47229V1.18369C4.39849 1.08213 4.35815 0.984741 4.28634 0.912932C4.21453 0.841123 4.11713 0.800781 4.01558 0.800781C3.91403 0.800781 3.81663 0.841123 3.74483 0.912932C3.67302 0.984741 3.63268 1.08213 3.63268 1.18369V2.54785C3.30623 2.60718 3.00583 2.76516 2.77195 3.0005C2.53807 3.23584 2.38196 3.53722 2.32467 3.86403H0.952333C0.85078 3.86403 0.753387 3.90437 0.681578 3.97618C0.609769 4.04799 0.569427 4.14538 0.569427 4.24694C0.569427 4.34849 0.609769 4.44588 0.681578 4.51769C0.753387 4.5895 0.85078 4.62984 0.952333 4.62984H2.24758C2.2292 4.88511 2.21694 5.14038 2.21031 5.39565H1.46287C1.36132 5.39565 1.26393 5.436 1.19212 5.5078C1.12031 5.57961 1.07997 5.67701 1.07997 5.77856C1.07997 5.88011 1.12031 5.97751 1.19212 6.04931C1.26393 6.12112 1.36132 6.16147 1.46287 6.16147H2.21031C2.21694 6.41674 2.2292 6.67201 2.24758 6.92728H0.952333C0.85078 6.92728 0.753387 6.96762 0.681578 7.03943C0.609769 7.11124 0.569427 7.20863 0.569427 7.31018C0.569427 7.41174 0.609769 7.50913 0.681578 7.58094C0.753387 7.65275 0.85078 7.69309 0.952333 7.69309H2.32467C2.38196 8.01989 2.53807 8.32128 2.77195 8.55662C3.00583 8.79196 3.30623 8.94994 3.63268 9.00926V10.3734C3.63268 10.475 3.67302 10.5724 3.74483 10.6442C3.81663 10.716 3.91403 10.7563 4.01558 10.7563C4.11713 10.7563 4.21453 10.716 4.28634 10.6442C4.35815 10.5724 4.39849 10.475 4.39849 10.3734V9.08482C4.65274 9.10269 4.90852 9.11495 5.1643 9.12056V9.86289C5.1643 9.96444 5.20464 10.0618 5.27645 10.1336C5.34826 10.2055 5.44565 10.2458 5.54721 10.2458C5.64876 10.2458 5.74615 10.2055 5.81796 10.1336C5.88977 10.0618 5.93011 9.96444 5.93011 9.86289V9.12056C6.18563 9.11465 6.44097 9.10273 6.69592 9.08482V10.3734C6.69592 10.475 6.73627 10.5724 6.80807 10.6442C6.87988 10.716 6.97728 10.7563 7.07883 10.7563C7.18038 10.7563 7.27778 10.716 7.34958 10.6442C7.42139 10.5724 7.46174 10.475 7.46174 10.3734V9.00926C7.78818 8.94994 8.08858 8.79196 8.32246 8.55662C8.55634 8.32128 8.71245 8.01989 8.76974 7.69309H10.1421C10.2436 7.69309 10.341 7.65275 10.4128 7.58094C10.4846 7.50913 10.525 7.41174 10.525 7.31018C10.525 7.20863 10.4846 7.11124 10.4128 7.03943C10.341 6.96762 10.2436 6.92728 10.1421 6.92728H8.84683C8.86521 6.67201 8.87747 6.41674 8.8841 6.16147H9.63154C9.73309 6.16147 9.83048 6.12112 9.90229 6.04931C9.9741 5.97751 10.0144 5.88011 10.0144 5.77856C10.0144 5.67701 9.9741 5.57961 9.90229 5.5078C9.83048 5.436 9.73309 5.39565 9.63154 5.39565H8.8841C8.87747 5.14038 8.86521 4.88511 8.84683 4.62984H10.1421C10.2436 4.62984 10.341 4.5895 10.4128 4.51769C10.4846 4.44588 10.525 4.34849 10.525 4.24694C10.525 4.14538 10.4846 4.04799 10.4128 3.97618C10.341 3.90437 10.2436 3.86403 10.1421 3.86403H8.76974C8.71245 3.53722 8.55634 3.23584 8.32246 3.0005C8.08858 2.76516 7.78818 2.60718 7.46174 2.54785V1.18369ZM3.82821 3.29222C4.97071 3.1656 6.1237 3.1656 7.2662 3.29222C7.66085 3.33664 7.97585 3.64858 8.02129 4.0371C8.15662 5.19413 8.15662 6.36299 8.02129 7.52002C7.99732 7.71095 7.90972 7.88825 7.77264 8.0233C7.63555 8.15835 7.45696 8.24328 7.26569 8.26438C6.12336 8.39094 4.97054 8.39094 3.82821 8.26438C3.63703 8.24317 3.45856 8.15819 3.32157 8.02315C3.18459 7.88811 3.09707 7.71088 3.07312 7.52002C2.93781 6.36299 2.93781 5.19413 3.07312 4.0371C3.09709 3.84617 3.18469 3.66887 3.32177 3.53382C3.45886 3.39877 3.63745 3.31384 3.82872 3.29273L3.82821 3.29222Z" fill="black"/>
</g>
</svg>
