<svg width="25" height="25" viewBox="0 0 25 25" fill="none" xmlns="http://www.w3.org/2000/svg">
<path d="M19.2937 4.7653C18.8405 4.31277 18.2262 4.05859 17.5857 4.05859C16.9452 4.05859 16.3309 4.31277 15.8777 4.7653L5.03503 15.608C4.72453 15.9167 4.47833 16.284 4.31069 16.6885C4.14305 17.093 4.05728 17.5268 4.05836 17.9646V19.3333C4.05836 19.5101 4.1286 19.6797 4.25362 19.8047C4.37865 19.9297 4.54822 20 4.72503 20H6.09369C6.53153 20.0012 6.96527 19.9156 7.3698 19.748C7.77432 19.5805 8.1416 19.3344 8.45036 19.024L19.2937 8.18064C19.746 7.72743 20.0001 7.11328 20.0001 6.47297C20.0001 5.83266 19.746 5.21851 19.2937 4.7653ZM7.50769 18.0813C7.1317 18.4548 6.62367 18.6651 6.09369 18.6666H5.39169V17.9646C5.39102 17.7019 5.44246 17.4416 5.54305 17.1989C5.64364 16.9562 5.79137 16.7359 5.97769 16.5506L14.2064 8.32197L15.7397 9.8553L7.50769 18.0813ZM18.3504 7.23797L16.6797 8.9093L15.1464 7.3793L16.8177 5.70797C16.9184 5.60751 17.0379 5.52786 17.1693 5.47358C17.3008 5.41929 17.4416 5.39143 17.5839 5.39158C17.7261 5.39174 17.8669 5.41991 17.9982 5.47448C18.1296 5.52905 18.2489 5.60896 18.3494 5.70964C18.4498 5.81032 18.5295 5.9298 18.5838 6.06126C18.638 6.19272 18.6659 6.33359 18.6657 6.47581C18.6656 6.61804 18.6374 6.75885 18.5829 6.89019C18.5283 7.02153 18.4484 7.14084 18.3477 7.2413L18.3504 7.23797Z" fill="#6C6C6C"/>
</svg>
