<svg width="24" height="20" viewBox="0 0 24 20" fill="none" xmlns="http://www.w3.org/2000/svg">
<g id="Group 4">
<path id="Vector" d="M17.4201 1.66679L19.0868 1.66679C19.7498 1.66679 20.3857 1.93018 20.8545 2.39902C21.3234 2.86786 21.5868 3.50375 21.5868 4.16679L21.5868 15.8335C21.5868 16.4965 21.3234 17.1324 20.8545 17.6012C20.3857 18.0701 19.7498 18.3335 19.0868 18.3335L17.4201 18.3335C17.1991 18.3335 16.9871 18.4213 16.8308 18.5775C16.6745 18.7338 16.5868 18.9458 16.5868 19.1668C16.5868 19.3878 16.6745 19.5998 16.8308 19.756C16.9871 19.9123 17.1991 20.0001 17.4201 20.0001L19.0868 20.0001C20.1914 19.9988 21.2505 19.5594 22.0316 18.7783C22.8127 17.9972 23.2521 16.9381 23.2534 15.8335L23.2534 4.16679C23.2521 3.06213 22.8127 2.00309 22.0316 1.22197C21.2505 0.440857 20.1914 0.0014455 19.0868 0.000121706L17.4201 0.00012156C17.1991 0.000121541 16.9871 0.0879187 16.8308 0.244199C16.6746 0.40048 16.5868 0.612441 16.5868 0.833455C16.5868 1.05447 16.6746 1.26643 16.8308 1.42271C16.9871 1.57899 17.1991 1.66679 17.4201 1.66679Z" fill="#262626"/>
<path id="Vector_2" d="M1.71976 12.3669L4.95226 15.5994C5.10943 15.7512 5.31993 15.8352 5.53843 15.8333C5.75692 15.8314 5.96593 15.7438 6.12044 15.5893C6.27495 15.4348 6.36259 15.2258 6.36449 15.0073C6.36639 14.7888 6.28239 14.5783 6.13059 14.4211L2.89809 11.1886C2.80206 11.0907 2.71812 10.9816 2.64809 10.8636C2.66059 10.8636 2.67059 10.8703 2.68309 10.8703L15.7531 10.8436C15.9741 10.8436 16.1861 10.7558 16.3423 10.5995C16.4986 10.4433 16.5864 10.2313 16.5864 10.0103C16.5864 9.78927 16.4986 9.57731 16.3423 9.42103C16.1861 9.26475 15.9741 9.17695 15.7531 9.17695L2.68809 9.20361C2.66476 9.20361 2.64559 9.21528 2.62309 9.21695C2.69701 9.07598 2.79074 8.94633 2.90143 8.83195L6.13393 5.59945C6.21352 5.52258 6.277 5.43062 6.32068 5.32895C6.36435 5.22728 6.38734 5.11793 6.3883 5.00728C6.38926 4.89663 6.36818 4.7869 6.32628 4.68449C6.28438 4.58207 6.2225 4.48903 6.14426 4.41079C6.06601 4.33254 5.97297 4.27066 5.87056 4.22876C5.76814 4.18686 5.65841 4.16578 5.54776 4.16674C5.43711 4.1677 5.32776 4.19069 5.22609 4.23436C5.12442 4.27804 5.03247 4.34152 4.9556 4.42111L1.72309 7.65361C1.09819 8.27871 0.74714 9.1264 0.747139 10.0103C0.747139 10.8942 1.09819 11.7419 1.72309 12.3669L1.71976 12.3669Z" fill="#262626"/>
</g>
</svg>
