<svg width="30" height="28" viewBox="0 0 30 28" fill="none" xmlns="http://www.w3.org/2000/svg">
<path id="Vector" d="M21.8722 0.820312C20.4652 0.842197 19.0889 1.23496 17.8823 1.95894C16.6757 2.68292 15.6814 3.71248 15 4.94365C14.3186 3.71248 13.3243 2.68292 12.1177 1.95894C10.9111 1.23496 9.53477 0.842197 8.12777 0.820312C5.88485 0.917762 3.77166 1.89895 2.24987 3.5495C0.728082 5.20006 -0.0786051 7.38582 0.00604894 9.62926C0.00604894 15.3107 5.98614 21.5157 11.0016 25.7228C12.1214 26.6638 13.5373 27.1797 15 27.1797C16.4627 27.1797 17.8786 26.6638 18.9984 25.7228C24.0139 21.5157 29.994 15.3107 29.994 9.62926C30.0786 7.38582 29.2719 5.20006 27.7501 3.5495C26.2283 1.89895 24.1151 0.917762 21.8722 0.820312ZM17.3928 23.811C16.723 24.375 15.8756 24.6843 15 24.6843C14.1244 24.6843 13.277 24.375 12.6072 23.811C6.18731 18.4245 2.50504 13.2565 2.50504 9.62926C2.41963 8.04829 2.96281 6.49768 4.01614 5.31562C5.06946 4.13356 6.54745 3.41595 8.12777 3.3193C9.70809 3.41595 11.1861 4.13356 12.2394 5.31562C13.2927 6.49768 13.8359 8.04829 13.7505 9.62926C13.7505 9.96065 13.8821 10.2785 14.1165 10.5128C14.3508 10.7471 14.6686 10.8788 15 10.8788C15.3314 10.8788 15.6492 10.7471 15.8835 10.5128C16.1179 10.2785 16.2495 9.96065 16.2495 9.62926C16.1641 8.04829 16.7073 6.49768 17.7606 5.31562C18.8139 4.13356 20.2919 3.41595 21.8722 3.3193C23.4525 3.41595 24.9305 4.13356 25.9839 5.31562C27.0372 6.49768 27.5804 8.04829 27.495 9.62926C27.495 13.2565 23.8127 18.4245 17.3928 23.806V23.811Z" fill="#6C6C6C"/>
</svg>
