<svg width="20" height="18" viewBox="0 0 20 18" fill="none" xmlns="http://www.w3.org/2000/svg">
<path id="Vector" d="M14.5835 0.209961C13.6451 0.224557 12.7272 0.486505 11.9224 0.969353C11.1177 1.4522 10.4546 2.13885 10.0001 2.95996C9.54566 2.13885 8.88257 1.4522 8.07783 0.969353C7.27308 0.486505 6.35517 0.224557 5.41679 0.209961C3.92091 0.274953 2.51155 0.929339 1.49661 2.03015C0.481678 3.13097 -0.0563308 4.58873 0.000128002 6.08496C0.000128002 9.87413 3.98846 14.0125 7.33346 16.8183C8.08031 17.4459 9.02459 17.79 10.0001 17.79C10.9757 17.79 11.9199 17.4459 12.6668 16.8183C16.0118 14.0125 20.0001 9.87413 20.0001 6.08496C20.0566 4.58873 19.5186 3.13097 18.5036 2.03015C17.4887 0.929339 16.0793 0.274953 14.5835 0.209961ZM11.596 15.5433C11.1493 15.9194 10.5841 16.1257 10.0001 16.1257C9.41617 16.1257 8.85098 15.9194 8.40429 15.5433C4.12263 11.9508 1.66679 8.50413 1.66679 6.08496C1.60983 5.03056 1.9721 3.9964 2.6746 3.20804C3.37709 2.41969 4.36282 1.94109 5.41679 1.87663C6.47077 1.94109 7.45649 2.41969 8.15899 3.20804C8.86149 3.9964 9.22376 5.03056 9.16679 6.08496C9.16679 6.30597 9.25459 6.51794 9.41087 6.67422C9.56715 6.8305 9.77911 6.91829 10.0001 6.91829C10.2211 6.91829 10.4331 6.8305 10.5894 6.67422C10.7457 6.51794 10.8335 6.30597 10.8335 6.08496C10.7765 5.03056 11.1388 3.9964 11.8413 3.20804C12.5438 2.41969 13.5295 1.94109 14.5835 1.87663C15.6374 1.94109 16.6232 2.41969 17.3257 3.20804C18.0282 3.9964 18.3904 5.03056 18.3335 6.08496C18.3335 8.50413 15.8776 11.9508 11.596 15.54V15.5433Z" fill="#262626"/>
</svg>
