<svg width="18" height="16" viewBox="0 0 18 16" fill="none" xmlns="http://www.w3.org/2000/svg">
<g id="fi-rr-eye-crossed" clip-path="url(#clip0_807_1725)">
<path id="Vector" d="M16.514 6.03119C15.9122 5.04567 15.153 4.16536 14.2667 3.42519L16.1334 1.55852C16.2548 1.43278 16.322 1.26438 16.3205 1.08958C16.319 0.914787 16.2489 0.747579 16.1252 0.623973C16.0016 0.500368 15.8344 0.430255 15.6596 0.428736C15.4848 0.427217 15.3164 0.494413 15.1907 0.615852L13.1607 2.64852C11.9023 1.90107 10.4636 1.51149 9.00003 1.52185C4.8727 1.52185 2.5207 4.34719 1.48603 6.03119C1.16639 6.54819 0.99707 7.14401 0.99707 7.75185C0.99707 8.35969 1.16639 8.95551 1.48603 9.47252C2.08787 10.458 2.84703 11.3383 3.73337 12.0785L1.8667 13.9452C1.80303 14.0067 1.75224 14.0802 1.7173 14.1616C1.68236 14.2429 1.66397 14.3304 1.6632 14.4189C1.66243 14.5074 1.6793 14.5952 1.71282 14.6772C1.74634 14.7591 1.79584 14.8335 1.85844 14.8961C1.92103 14.9587 1.99547 15.0082 2.0774 15.0417C2.15933 15.0753 2.24712 15.0921 2.33564 15.0914C2.42415 15.0906 2.51163 15.0722 2.59297 15.0373C2.67431 15.0023 2.74787 14.9515 2.80937 14.8879L4.84403 12.8532C6.10088 13.6005 7.53782 13.9908 9.00003 13.9819C13.1274 13.9819 15.4794 11.1565 16.514 9.47252C16.8337 8.95551 17.003 8.35969 17.003 7.75185C17.003 7.14401 16.8337 6.54819 16.514 6.03119ZM2.62203 8.77452C2.43212 8.46722 2.33153 8.1131 2.33153 7.75185C2.33153 7.3906 2.43212 7.03649 2.62203 6.72919C3.51137 5.28519 5.52137 2.85519 9.00003 2.85519C10.1069 2.84898 11.1982 3.11574 12.1774 3.63185L10.8354 4.97385C10.1953 4.54892 9.42797 4.35852 8.66352 4.43495C7.89907 4.51138 7.18461 4.84994 6.64137 5.39319C6.09813 5.93643 5.75956 6.65089 5.68313 7.41534C5.6067 8.17979 5.7971 8.94714 6.22203 9.58719L4.68203 11.1272C3.86544 10.467 3.16859 9.67115 2.62203 8.77452ZM11 7.75185C11 8.28229 10.7893 8.79099 10.4142 9.16607C10.0392 9.54114 9.53047 9.75185 9.00003 9.75185C8.70304 9.7507 8.41017 9.68233 8.14337 9.55185L10.8 6.89519C10.9305 7.16198 10.9989 7.45486 11 7.75185ZM7.00003 7.75185C7.00003 7.22142 7.21075 6.71271 7.58582 6.33764C7.96089 5.96257 8.4696 5.75185 9.00003 5.75185C9.29703 5.753 9.5899 5.82138 9.8567 5.95185L7.20003 8.60852C7.06956 8.34172 7.00118 8.04884 7.00003 7.75185ZM15.378 8.77452C14.4887 10.2185 12.4787 12.6485 9.00003 12.6485C7.89319 12.6547 6.80188 12.388 5.8227 11.8719L7.1647 10.5299C7.80475 10.9548 8.5721 11.1452 9.33655 11.0688C10.101 10.9923 10.8155 10.6538 11.3587 10.1105C11.9019 9.56728 12.2405 8.85281 12.3169 8.08836C12.3934 7.32391 12.203 6.55656 11.778 5.91652L13.318 4.37652C14.1346 5.03671 14.8315 5.83255 15.378 6.72919C15.5679 7.03649 15.6685 7.3906 15.6685 7.75185C15.6685 8.1131 15.5679 8.46722 15.378 8.77452Z" fill="#262626"/>
</g>
<defs>
<clipPath id="clip0_807_1725">
<rect width="18" height="16" fill="white" transform="translate(0 -0.000244141)"/>
</clipPath>
</defs>
</svg>
