<svg width="31" height="27" viewBox="0 0 31 27" fill="none" xmlns="http://www.w3.org/2000/svg">
<path d="M18.3823 1.45894C19.5889 0.734962 20.9652 0.342197 22.3722 0.320312C24.6151 0.417762 26.7283 1.39894 28.2501 3.0495C29.7719 4.70006 30.5786 6.88582 30.4939 9.12926C30.4939 14.8107 24.5139 21.0157 19.4984 25.2228C18.3786 26.1638 16.9627 26.6797 15.5 26.6797C14.0373 26.6797 12.6214 26.1638 11.5016 25.2228C6.48614 21.0157 0.506049 14.8107 0.506049 9.12926C0.421395 6.88582 1.22808 4.70006 2.74987 3.0495C4.27166 1.39894 6.38485 0.417762 8.62777 0.320312C10.0348 0.342197 11.4111 0.734962 12.6177 1.45894C13.8243 2.18292 14.8186 3.21248 15.5 4.44365C16.1814 3.21248 17.1757 2.18292 18.3823 1.45894Z" fill="#B9FF61"/>
</svg>
