<svg width="20" height="22" viewBox="0 0 20 22" fill="none" xmlns="http://www.w3.org/2000/svg">
<path id="Vector" d="M9.99989 13.7502C9.75678 13.7502 9.52363 13.6537 9.35173 13.4818C9.17982 13.3099 9.08325 13.0767 9.08325 12.8336C9.11729 12.2346 9.29951 11.6535 9.61357 11.1423C9.92762 10.6312 10.3637 10.206 10.8826 9.90495C11.2217 9.71911 11.4931 9.43051 11.6578 9.08067C11.8225 8.73083 11.872 8.33777 11.7993 7.95801C11.7286 7.59528 11.5513 7.2619 11.29 7.00061C11.0287 6.73931 10.6954 6.56199 10.3326 6.49139C10.0678 6.44251 9.79553 6.45257 9.53507 6.52084C9.27461 6.58911 9.03238 6.71392 8.8256 6.88639C8.61883 7.05886 8.45259 7.27476 8.33869 7.51875C8.22479 7.76274 8.16604 8.02882 8.16661 8.29808C8.16661 8.54119 8.07004 8.77434 7.89813 8.94624C7.72623 9.11814 7.49308 9.21472 7.24997 9.21472C7.00686 9.21472 6.77371 9.11814 6.60181 8.94624C6.42991 8.77434 6.33333 8.54119 6.33333 8.29808C6.33324 7.76254 6.45046 7.23348 6.67676 6.7481C6.90306 6.26272 7.23294 5.8328 7.64321 5.48858C8.03531 5.1608 8.4916 4.9186 8.9828 4.77753C9.474 4.63646 9.98927 4.59964 10.4955 4.66942C11.0018 4.73921 11.4879 4.91406 11.9226 5.18276C12.3574 5.45145 12.7311 5.80806 13.0199 6.2297C13.3087 6.65134 13.5062 7.1287 13.5996 7.63114C13.6931 8.13358 13.6805 8.65001 13.5626 9.1473C13.4447 9.64458 13.2242 10.1117 12.9152 10.5188C12.6061 10.9258 12.2154 11.2637 11.7681 11.5109C11.5363 11.6537 11.3395 11.8467 11.1921 12.0756C11.0448 12.3045 10.9506 12.5635 10.9165 12.8336C10.9165 13.0767 10.82 13.3099 10.6481 13.4818C10.4761 13.6537 10.243 13.7502 9.99989 13.7502ZM10.7268 21.78C12.7067 20.9844 19.1663 17.8559 19.1663 11.0397V6.29981C19.1673 5.33643 18.8643 4.3973 18.3004 3.61618C17.7366 2.83506 16.9406 2.25179 16.0259 1.94944L10.2886 0.0474142C10.1013 -0.0158047 9.89845 -0.0158047 9.71115 0.0474142L3.9739 1.94944C3.0592 2.25179 2.26323 2.83506 1.69936 3.61618C1.13549 4.3973 0.832483 5.33643 0.833499 6.29981V11.0397C0.833499 17.0547 7.25456 20.7341 9.2235 21.7186C9.46153 21.862 9.72526 21.9576 9.99989 22C10.2538 21.9725 10.5003 21.8979 10.7268 21.78ZM15.4484 3.68922C15.997 3.8711 16.4744 4.22122 16.8127 4.68985C17.151 5.15849 17.3331 5.72181 17.333 6.29981V11.0397C17.333 16.7073 11.7534 19.3912 10.043 20.0787C8.31236 19.2134 2.66678 16.0043 2.66678 11.0397V6.29981C2.6667 5.72181 2.84875 5.15849 3.18706 4.68985C3.52538 4.22122 4.00275 3.8711 4.55139 3.68922L9.99989 1.88344L15.4484 3.68922ZM9.99989 15.5835C9.8186 15.5835 9.64137 15.6373 9.49063 15.738C9.33989 15.8387 9.2224 15.9819 9.15303 16.1494C9.08365 16.3169 9.06549 16.5012 9.10086 16.679C9.13623 16.8568 9.22353 17.0201 9.35173 17.1483C9.47992 17.2765 9.64325 17.3638 9.82106 17.3992C9.99887 17.4346 10.1832 17.4164 10.3507 17.347C10.5182 17.2777 10.6613 17.1602 10.762 17.0094C10.8628 16.8587 10.9165 16.6815 10.9165 16.5002C10.9165 16.2571 10.82 16.0239 10.6481 15.852C10.4761 15.6801 10.243 15.5835 9.99989 15.5835Z" fill="#262626"/>
</svg>
