<svg width="23" height="22" viewBox="0 0 23 22" fill="none" xmlns="http://www.w3.org/2000/svg">
<g id="fi-rr-money" clip-path="url(#clip0_969_3031)">
<path id="Vector" d="M17.7028 18.0005H4.86947C3.65434 17.9991 2.48939 17.5377 1.63017 16.7175C0.770941 15.8974 0.287588 14.7854 0.286133 13.6255L0.286133 8.37549C0.287588 7.21559 0.770941 6.1036 1.63017 5.28343C2.48939 4.46326 3.65434 4.00188 4.86947 4.00049H17.7028C18.9179 4.00188 20.0829 4.46326 20.9421 5.28343C21.8013 6.1036 22.2847 7.21559 22.2861 8.37549V13.6255C22.2847 14.7854 21.8013 15.8974 20.9421 16.7175C20.0829 17.5377 18.9179 17.9991 17.7028 18.0005ZM4.86947 5.75049C4.14012 5.75049 3.44065 6.02705 2.92492 6.51933C2.4092 7.01162 2.11947 7.6793 2.11947 8.37549V13.6255C2.11947 14.3217 2.4092 14.9894 2.92492 15.4816C3.44065 15.9739 4.14012 16.2505 4.86947 16.2505H17.7028C18.4321 16.2505 19.1316 15.9739 19.6473 15.4816C20.1631 14.9894 20.4528 14.3217 20.4528 13.6255V8.37549C20.4528 7.6793 20.1631 7.01162 19.6473 6.51933C19.1316 6.02705 18.4321 5.75049 17.7028 5.75049H4.86947ZM11.2861 14.5005C10.5609 14.5005 9.85202 14.2952 9.24904 13.9106C8.64606 13.526 8.1761 12.9794 7.89857 12.3399C7.62105 11.7003 7.54844 10.9966 7.68992 10.3177C7.8314 9.63874 8.18062 9.0151 8.69341 8.52561C9.2062 8.03613 9.85954 7.70279 10.5708 7.56774C11.2821 7.43269 12.0193 7.502 12.6893 7.76691C13.3593 8.03182 13.932 8.48042 14.3349 9.05599C14.7378 9.63157 14.9528 10.3083 14.9528 11.0005C14.9528 11.9287 14.5665 12.819 13.8789 13.4754C13.1912 14.1317 12.2586 14.5005 11.2861 14.5005ZM11.2861 9.25049C10.9235 9.25049 10.5691 9.35312 10.2676 9.54542C9.9661 9.73771 9.73111 10.011 9.59235 10.3308C9.45359 10.6506 9.41729 11.0024 9.48803 11.3419C9.55877 11.6814 9.73337 11.9932 9.98977 12.2379C10.2462 12.4827 10.5728 12.6493 10.9285 12.7169C11.2841 12.7844 11.6527 12.7497 11.9877 12.6173C12.3227 12.4848 12.609 12.2605 12.8105 11.9727C13.0119 11.6849 13.1195 11.3466 13.1195 11.0005C13.1195 10.5364 12.9263 10.0912 12.5825 9.76305C12.2387 9.43486 11.7724 9.25049 11.2861 9.25049ZM4.86947 7.50049C4.68817 7.50049 4.51094 7.55181 4.36019 7.64795C4.20945 7.7441 4.09196 7.88075 4.02258 8.04064C3.9532 8.20053 3.93504 8.37646 3.97041 8.54619C4.00578 8.71593 4.09309 8.87184 4.22129 8.99421C4.34948 9.11658 4.51282 9.19991 4.69063 9.23368C4.86845 9.26744 5.05276 9.25011 5.22026 9.18388C5.38776 9.11766 5.53092 9.00551 5.63165 8.86161C5.73237 8.71772 5.78613 8.54855 5.78613 8.37549C5.78613 8.14342 5.68956 7.92086 5.51765 7.75677C5.34574 7.59268 5.11258 7.50049 4.86947 7.50049ZM16.7861 8.37549C16.7861 8.54855 16.8399 8.71772 16.9406 8.86161C17.0413 9.00551 17.1845 9.11766 17.352 9.18388C17.5195 9.25011 17.7038 9.26744 17.8816 9.23368C18.0595 9.19991 18.2228 9.11658 18.351 8.99421C18.4792 8.87184 18.5665 8.71593 18.6019 8.54619C18.6372 8.37646 18.6191 8.20053 18.5497 8.04064C18.4803 7.88075 18.3628 7.7441 18.2121 7.64795C18.0613 7.55181 17.8841 7.50049 17.7028 7.50049C17.4597 7.50049 17.2265 7.59268 17.0546 7.75677C16.8827 7.92086 16.7861 8.14342 16.7861 8.37549ZM4.86947 12.7505C4.68817 12.7505 4.51094 12.8018 4.36019 12.898C4.20945 12.9941 4.09196 13.1308 4.02258 13.2906C3.9532 13.4505 3.93504 13.6265 3.97041 13.7962C4.00578 13.9659 4.09309 14.1218 4.22129 14.2442C4.34948 14.3666 4.51282 14.4499 4.69063 14.4837C4.86845 14.5174 5.05276 14.5001 5.22026 14.4339C5.38776 14.3677 5.53092 14.2555 5.63165 14.1116C5.73237 13.9677 5.78613 13.7985 5.78613 13.6255C5.78613 13.3934 5.68956 13.1709 5.51765 13.0068C5.34574 12.8427 5.11258 12.7505 4.86947 12.7505ZM16.7861 13.6255C16.7861 13.7985 16.8399 13.9677 16.9406 14.1116C17.0413 14.2555 17.1845 14.3677 17.352 14.4339C17.5195 14.5001 17.7038 14.5174 17.8816 14.4837C18.0595 14.4499 18.2228 14.3666 18.351 14.2442C18.4792 14.1218 18.5665 13.9659 18.6019 13.7962C18.6372 13.6265 18.6191 13.4505 18.5497 13.2906C18.4803 13.1308 18.3628 12.9941 18.2121 12.898C18.0613 12.8018 17.8841 12.7505 17.7028 12.7505C17.4597 12.7505 17.2265 12.8427 17.0546 13.0068C16.8827 13.1709 16.7861 13.3934 16.7861 13.6255Z" fill="#262626"/>
</g>
<defs>
<clipPath id="clip0_969_3031">
<rect width="22" height="21" fill="white" transform="translate(0.286133 0.5)"/>
</clipPath>
</defs>
</svg>
