<svg width="19" height="28" viewBox="0 0 19 28" fill="none" xmlns="http://www.w3.org/2000/svg">
<path id="Vector" d="M1.06836 6.2C1.06836 4.82087 1.61622 3.49823 2.5914 2.52304C3.56659 1.54786 4.88923 1 6.26836 1H13.2017C14.5808 1 15.9035 1.54786 16.8786 2.52304C17.8538 3.49823 18.4017 4.82087 18.4017 6.2V21.8C18.4017 23.1791 17.8538 24.5018 16.8786 25.477C15.9035 26.4521 14.5808 27 13.2017 27H6.26836C4.88923 27 3.56659 26.4521 2.5914 25.477C1.61622 24.5018 1.06836 23.1791 1.06836 21.8V6.2ZM6.26836 2.73333C5.34894 2.73333 4.46718 3.09857 3.81706 3.7487C3.16693 4.39882 2.80169 5.28058 2.80169 6.2V21.8C2.80169 22.7194 3.16693 23.6012 3.81706 24.2513C4.46718 24.9014 5.34894 25.2667 6.26836 25.2667H13.2017C14.1211 25.2667 15.0029 24.9014 15.653 24.2513C16.3031 23.6012 16.6684 22.7194 16.6684 21.8V6.2C16.6684 5.28058 16.3031 4.39882 15.653 3.7487C15.0029 3.09857 14.1211 2.73333 13.2017 2.73333H10.6017V5.33333C10.8315 5.33333 11.052 5.42464 11.2145 5.58717C11.3771 5.74971 11.4684 5.97015 11.4684 6.2V9.66667C11.4684 9.89652 11.3771 10.117 11.2145 10.2795C11.052 10.442 10.8315 10.5333 10.6017 10.5333V12.2667C10.6017 12.4965 10.5104 12.717 10.3479 12.8795C10.1853 13.042 9.96488 13.1333 9.73503 13.1333C9.50517 13.1333 9.28473 13.042 9.1222 12.8795C8.95967 12.717 8.86836 12.4965 8.86836 12.2667V10.5333C8.6385 10.5333 8.41807 10.442 8.25553 10.2795C8.093 10.117 8.00169 9.89652 8.00169 9.66667V6.2C8.00169 5.97015 8.093 5.74971 8.25553 5.58717C8.41807 5.42464 8.6385 5.33333 8.86836 5.33333V2.73333H6.26836Z" fill="black" stroke="black" stroke-width="0.5"/>
</svg>
