<svg width="17" height="16" viewBox="0 0 17 16" fill="none" xmlns="http://www.w3.org/2000/svg">
<g id="fi-rr-eye" clip-path="url(#clip0_807_2369)">
<path id="Vector" d="M16.014 6.27935C14.98 4.59535 12.628 1.77002 8.50003 1.77002C4.37203 1.77002 2.02003 4.59535 0.986034 6.27935C0.666386 6.79636 0.49707 7.39218 0.49707 8.00002C0.49707 8.60786 0.666386 9.20368 0.986034 9.72069C2.02003 11.4047 4.37203 14.23 8.50003 14.23C12.628 14.23 14.98 11.4047 16.014 9.72069C16.3337 9.20368 16.503 8.60786 16.503 8.00002C16.503 7.39218 16.3337 6.79636 16.014 6.27935ZM14.8774 9.02269C13.9894 10.4667 11.9794 12.8967 8.50003 12.8967C5.0207 12.8967 3.0107 10.4667 2.1227 9.02269C1.93279 8.71538 1.8322 8.36127 1.8322 8.00002C1.8322 7.63877 1.93279 7.28466 2.1227 6.97735C3.0107 5.53335 5.0207 3.10335 8.50003 3.10335C11.9794 3.10335 13.9894 5.53069 14.8774 6.97735C15.0673 7.28466 15.1679 7.63877 15.1679 8.00002C15.1679 8.36127 15.0673 8.71538 14.8774 9.02269Z" fill="#262626"/>
<path id="Vector_2" d="M8.49984 4.6665C7.84057 4.6665 7.1961 4.862 6.64794 5.22827C6.09977 5.59454 5.67253 6.11514 5.42024 6.72423C5.16795 7.33331 5.10194 8.00354 5.23055 8.65014C5.35917 9.29674 5.67664 9.89069 6.14282 10.3569C6.60899 10.823 7.20293 11.1405 7.84954 11.2691C8.49614 11.3977 9.16636 11.3317 9.77545 11.0794C10.3845 10.8271 10.9051 10.3999 11.2714 9.85174C11.6377 9.30357 11.8332 8.65911 11.8332 7.99984C11.8321 7.11611 11.4806 6.26888 10.8557 5.64398C10.2308 5.01909 9.38357 4.66756 8.49984 4.6665ZM8.49984 9.99984C8.10428 9.99984 7.7176 9.88254 7.3887 9.66278C7.0598 9.44301 6.80345 9.13066 6.65208 8.7652C6.5007 8.39975 6.4611 7.99762 6.53827 7.60966C6.61544 7.22169 6.80592 6.86533 7.08562 6.58562C7.36533 6.30592 7.7217 6.11544 8.10966 6.03827C8.49762 5.9611 8.89975 6.0007 9.26521 6.15208C9.63066 6.30345 9.94302 6.5598 10.1628 6.8887C10.3825 7.2176 10.4998 7.60427 10.4998 7.99984C10.4998 8.53027 10.2891 9.03898 9.91405 9.41405C9.53898 9.78912 9.03027 9.99984 8.49984 9.99984Z" fill="#262626"/>
</g>
<defs>
<clipPath id="clip0_807_2369">
<rect width="16" height="16" fill="white" transform="translate(0.5)"/>
</clipPath>
</defs>
</svg>
