<svg width="21" height="20" viewBox="0 0 21 20" fill="none" xmlns="http://www.w3.org/2000/svg">
<g id="fi-rr-chart-pie-alt" clip-path="url(#clip0_969_3043)">
<path id="Vector" d="M16.1662 9.99983H12.2387C11.7966 9.99983 11.3727 9.82424 11.0601 9.51168C10.7476 9.19912 10.572 8.77519 10.572 8.33317V4.39483C10.5731 4.01149 10.4861 3.63301 10.3176 3.28867C10.1491 2.94433 9.90369 2.64335 9.60032 2.409C9.31285 2.18134 8.9769 2.02281 8.61841 1.94565C8.25992 1.86849 7.88849 1.87477 7.53282 1.964C5.51253 2.46551 3.72393 3.64155 2.4628 5.29764C1.20166 6.95372 0.543549 8.99065 0.597287 11.0716C0.651025 13.1525 1.4134 15.1527 2.75832 16.7415C4.10325 18.3303 5.95017 19.4124 7.99365 19.809C10.2912 20.2488 12.67 19.7935 14.6429 18.5364C16.6157 17.2794 18.0333 15.3156 18.6053 13.0473C18.6949 12.6912 18.7014 12.3192 18.6244 11.9602C18.5474 11.6011 18.3889 11.2646 18.1612 10.9765C17.924 10.6735 17.6213 10.4283 17.2758 10.2591C16.9303 10.09 16.5509 10.0013 16.1662 9.99983ZM16.9895 12.6398C16.6704 13.9247 16.0158 15.1018 15.0925 16.0507C14.1693 16.9996 13.0106 17.6862 11.7349 18.0403C10.4593 18.3945 9.11241 18.4034 7.83215 18.0662C6.5519 17.7291 5.38417 17.0579 4.44841 16.1214C3.51265 15.1848 2.84244 14.0165 2.50634 12.736C2.17023 11.4555 2.18029 10.1086 2.53548 8.83326C2.89068 7.55788 3.57826 6.39974 4.5279 5.47729C5.47755 4.55483 6.65517 3.90117 7.94032 3.58317C8.05026 3.5557 8.16511 3.55435 8.27567 3.57924C8.38623 3.60413 8.48942 3.65457 8.57699 3.7265C8.6804 3.80534 8.76426 3.90694 8.82206 4.02342C8.87987 4.1399 8.91007 4.26813 8.91032 4.39817V8.33317C8.91032 9.21722 9.26151 10.0651 9.88663 10.6902C10.5118 11.3153 11.3596 11.6665 12.2437 11.6665H16.1703C16.3015 11.667 16.4308 11.6973 16.5486 11.755C16.6664 11.8128 16.7696 11.8965 16.8503 11.9998C16.9212 12.0886 16.9705 12.1926 16.9945 12.3036C17.0185 12.4146 17.0165 12.5297 16.9887 12.6398H16.9895Z" fill="#262626"/>
<path id="Vector_2" d="M20.2815 6.20508C19.8979 4.79464 19.1526 3.50883 18.1194 2.47489C17.0862 1.44096 15.8009 0.694734 14.3907 0.310075C14.2429 0.270333 14.0905 0.250161 13.9374 0.250075C13.7172 0.247983 13.4988 0.289548 13.2947 0.372369C13.0907 0.45519 12.9051 0.577624 12.7486 0.732597C12.5922 0.88757 12.468 1.07201 12.3832 1.27526C12.2985 1.47851 12.2549 1.69653 12.2549 1.91674V5.83341C12.2549 6.49645 12.5183 7.13233 12.9871 7.60118C13.456 8.07002 14.0918 8.33341 14.7549 8.33341H18.6874C18.9446 8.33093 19.1978 8.26919 19.4273 8.15297C19.6568 8.03676 19.8564 7.8692 20.0106 7.66331C20.1648 7.45743 20.2695 7.21876 20.3165 6.96586C20.3635 6.71295 20.3515 6.45261 20.2815 6.20508ZM18.1999 6.66674H14.7515C14.5305 6.66674 14.3186 6.57894 14.1623 6.42266C14.006 6.26638 13.9182 6.05442 13.9182 5.83341L13.9115 1.92257C13.9176 1.91816 13.9249 1.91557 13.9324 1.91508H13.954C15.0891 2.22431 16.1233 2.82583 16.9532 3.65961C17.7832 4.49339 18.38 5.53026 18.684 6.66674H18.1999Z" fill="#262626"/>
</g>
<defs>
<clipPath id="clip0_969_3043">
<rect width="20" height="20" fill="white" transform="translate(0.572266)"/>
</clipPath>
</defs>
</svg>
