<svg width="16" height="16" viewBox="0 0 16 16" fill="none" xmlns="http://www.w3.org/2000/svg">
<path id="Vector" d="M8.65354 0.680915C8.65354 0.504104 8.72378 0.334535 8.84881 0.20951C8.97383 0.0844861 9.1434 0.0142482 9.32021 0.0142482C11.0877 0.0161893 12.7823 0.719192 14.0321 1.96901C15.2819 3.21884 15.9849 4.9134 15.9869 6.68092C15.9869 6.85773 15.9166 7.0273 15.7916 7.15232C15.6666 7.27734 15.497 7.34758 15.3202 7.34758C15.1434 7.34758 14.9738 7.27734 14.8488 7.15232C14.7238 7.0273 14.6535 6.85773 14.6535 6.68092C14.6519 5.26692 14.0895 3.91128 13.0897 2.91143C12.0898 1.91158 10.7342 1.34917 9.32021 1.34758C9.1434 1.34758 8.97383 1.27734 8.84881 1.15232C8.72378 1.0273 8.65354 0.857726 8.65354 0.680915ZM9.32021 4.01425C10.0275 4.01425 10.7057 4.2952 11.2058 4.7953C11.7059 5.29539 11.9869 5.97367 11.9869 6.68092C11.9869 6.85773 12.0571 7.0273 12.1821 7.15232C12.3072 7.27734 12.4767 7.34758 12.6535 7.34758C12.8303 7.34758 12.9999 7.27734 13.1249 7.15232C13.25 7.0273 13.3202 6.85773 13.3202 6.68092C13.3191 5.62037 12.8974 4.60357 12.1475 3.85366C11.3975 3.10374 10.3807 2.68197 9.32021 2.68092C9.1434 2.68092 8.97383 2.75115 8.84881 2.87618C8.72378 3.0012 8.65354 3.17077 8.65354 3.34758C8.65354 3.52439 8.72378 3.69396 8.84881 3.81899C8.97383 3.94401 9.1434 4.01425 9.32021 4.01425ZM15.3822 11.1736C15.7685 11.561 15.9855 12.0858 15.9855 12.6329C15.9855 13.18 15.7685 13.7048 15.3822 14.0922L14.7755 14.7916C9.31554 20.0189 -3.97111 6.73558 1.17555 1.25825L1.94222 0.591582C2.33006 0.216033 2.85017 0.00828096 3.39002 0.0132715C3.92987 0.018262 4.44605 0.235594 4.82688 0.618248C4.84755 0.638915 6.08288 2.24358 6.08288 2.24358C6.44943 2.62867 6.65348 3.1402 6.65261 3.67185C6.65174 4.2035 6.44602 4.71436 6.07821 5.09825L5.30622 6.06892C5.73345 7.10699 6.36159 8.05041 7.15455 8.84498C7.94752 9.63954 8.88967 10.2696 9.92688 10.6989L10.9035 9.92225C11.2875 9.55473 11.7982 9.34925 12.3297 9.3485C12.8612 9.34776 13.3726 9.5518 13.7575 9.91825C13.7575 9.91825 15.3615 11.1529 15.3822 11.1736ZM14.4649 12.1429C14.4649 12.1429 12.8695 10.9156 12.8489 10.8949C12.7115 10.7587 12.5259 10.6823 12.3325 10.6823C12.1391 10.6823 11.9535 10.7587 11.8162 10.8949C11.7982 10.9136 10.4535 11.9849 10.4535 11.9849C10.3629 12.057 10.2551 12.1043 10.1406 12.1221C10.0262 12.1399 9.90909 12.1275 9.80088 12.0862C8.45718 11.586 7.2367 10.8027 6.2221 9.78964C5.2075 8.77653 4.42248 7.5572 3.92022 6.21425C3.87568 6.10455 3.86116 5.98497 3.87815 5.86781C3.89514 5.75064 3.94303 5.64011 4.01688 5.54758C4.01688 5.54758 5.08822 4.20225 5.10622 4.18492C5.24239 4.04757 5.3188 3.86199 5.3188 3.66858C5.3188 3.47517 5.24239 3.28959 5.10622 3.15225C5.08555 3.13225 3.85822 1.53558 3.85822 1.53558C3.71882 1.41059 3.53689 1.34365 3.34972 1.34848C3.16255 1.35331 2.98431 1.42956 2.85155 1.56158L2.08489 2.22825C-1.67644 6.75092 9.83754 17.6262 13.8009 13.8809L14.4082 13.1809C14.5505 13.0491 14.636 12.8671 14.6466 12.6734C14.6572 12.4797 14.592 12.2895 14.4649 12.1429Z" fill="#262626"/>
</svg>
