<svg width="29" height="28" viewBox="0 0 29 28" fill="none" xmlns="http://www.w3.org/2000/svg">
<g id="Group">
<path id="Vector" fill-rule="evenodd" clip-rule="evenodd" d="M17.2962 8.96651C15.5939 8.77777 13.8759 8.77777 12.1736 8.96651C10.9014 9.10817 9.87008 10.1112 9.71992 11.3989C9.51784 13.127 9.51784 14.8728 9.71992 16.6009C9.87008 17.8901 10.9014 18.8903 12.1736 19.0333C13.8623 19.2218 15.6076 19.2218 17.2962 19.0333C17.9196 18.964 18.5012 18.686 18.9467 18.2444C19.3921 17.8028 19.6752 17.2237 19.7499 16.6009C19.9525 14.8726 19.9525 13.1273 19.7499 11.3989C19.6752 10.7762 19.3921 10.197 18.9467 9.75544C18.5012 9.31387 17.9196 9.03584 17.2962 8.96651ZM12.4088 11.0788C13.9416 10.9088 15.5283 10.9088 17.0611 11.0788C17.2071 11.0949 17.3435 11.1595 17.4485 11.2622C17.5535 11.3649 17.6211 11.4998 17.6405 11.6454C17.8232 13.2094 17.8232 14.7904 17.6405 16.3544C17.6211 16.5003 17.5533 16.6353 17.448 16.7381C17.3427 16.8408 17.2059 16.9053 17.0597 16.9211C15.5141 17.0922 13.9543 17.0922 12.4088 16.9211C12.2627 16.905 12.1263 16.8404 12.0213 16.7377C11.9163 16.635 11.8487 16.5 11.8293 16.3544C11.6466 14.7901 11.6466 13.2098 11.8293 11.6454C11.8488 11.4996 11.9166 11.3645 12.0219 11.2618C12.1272 11.159 12.2639 11.0946 12.4102 11.0788H12.4088Z" fill="black"/>
<path id="Vector_2" fill-rule="evenodd" clip-rule="evenodd" d="M20.0469 1.25C20.0469 0.968207 19.9349 0.697956 19.7357 0.498699C19.5364 0.299442 19.2662 0.1875 18.9844 0.1875C18.7026 0.1875 18.4323 0.299442 18.2331 0.498699C18.0338 0.697956 17.9219 0.968207 17.9219 1.25V4.82567C17.2144 4.77601 16.5059 4.74294 15.7969 4.7265V2.66667C15.7969 2.38487 15.6849 2.11462 15.4857 1.91537C15.2864 1.71611 15.0162 1.60417 14.7344 1.60417C14.4526 1.60417 14.1823 1.71611 13.9831 1.91537C13.7838 2.11462 13.6719 2.38487 13.6719 2.66667V4.7265C12.9629 4.74294 12.2543 4.77601 11.5469 4.82567V1.25C11.5469 0.968207 11.4349 0.697956 11.2357 0.498699C11.0364 0.299442 10.7662 0.1875 10.4844 0.1875C10.2026 0.1875 9.93233 0.299442 9.73307 0.498699C9.53382 0.697956 9.42188 0.968207 9.42188 1.25V5.03533C8.51605 5.19996 7.68248 5.63833 7.0335 6.29135C6.38453 6.94438 5.95136 7.78067 5.79238 8.6875H1.98438C1.70258 8.6875 1.43233 8.79944 1.23307 8.9987C1.03382 9.19796 0.921875 9.46821 0.921875 9.75C0.921875 10.0318 1.03382 10.302 1.23307 10.5013C1.43233 10.7006 1.70258 10.8125 1.98438 10.8125H5.57846C5.52746 11.5208 5.49346 12.2292 5.47504 12.9375H3.40104C3.11925 12.9375 2.849 13.0494 2.64974 13.2487C2.45048 13.448 2.33854 13.7182 2.33854 14C2.33854 14.2818 2.45048 14.552 2.64974 14.7513C2.849 14.9506 3.11925 15.0625 3.40104 15.0625H5.47504C5.49346 15.7708 5.52746 16.4792 5.57846 17.1875H1.98438C1.70258 17.1875 1.43233 17.2994 1.23307 17.4987C1.03382 17.698 0.921875 17.9682 0.921875 18.25C0.921875 18.5318 1.03382 18.802 1.23307 19.0013C1.43233 19.2006 1.70258 19.3125 1.98438 19.3125H5.79238C5.95136 20.2193 6.38453 21.0556 7.0335 21.7086C7.68248 22.3617 8.51605 22.8 9.42188 22.9647V26.75C9.42188 27.0318 9.53382 27.302 9.73307 27.5013C9.93233 27.7006 10.2026 27.8125 10.4844 27.8125C10.7662 27.8125 11.0364 27.7006 11.2357 27.5013C11.4349 27.302 11.5469 27.0318 11.5469 26.75V23.1743C12.2524 23.2239 12.9621 23.2579 13.6719 23.2735V25.3333C13.6719 25.6151 13.7838 25.8854 13.9831 26.0846C14.1823 26.2839 14.4526 26.3958 14.7344 26.3958C15.0162 26.3958 15.2864 26.2839 15.4857 26.0846C15.6849 25.8854 15.7969 25.6151 15.7969 25.3333V23.2735C16.5059 23.2571 17.2144 23.224 17.9219 23.1743V26.75C17.9219 27.0318 18.0338 27.302 18.2331 27.5013C18.4323 27.7006 18.7026 27.8125 18.9844 27.8125C19.2662 27.8125 19.5364 27.7006 19.7357 27.5013C19.9349 27.302 20.0469 27.0318 20.0469 26.75V22.9647C20.9527 22.8 21.7863 22.3617 22.4352 21.7086C23.0842 21.0556 23.5174 20.2193 23.6764 19.3125H27.4844C27.7662 19.3125 28.0364 19.2006 28.2357 19.0013C28.4349 18.802 28.5469 18.5318 28.5469 18.25C28.5469 17.9682 28.4349 17.698 28.2357 17.4987C28.0364 17.2994 27.7662 17.1875 27.4844 17.1875H23.8903C23.9413 16.4792 23.9753 15.7708 23.9937 15.0625H26.0677C26.3495 15.0625 26.6198 14.9506 26.819 14.7513C27.0183 14.552 27.1302 14.2818 27.1302 14C27.1302 13.7182 27.0183 13.448 26.819 13.2487C26.6198 13.0494 26.3495 12.9375 26.0677 12.9375H23.9937C23.9753 12.2292 23.9413 11.5208 23.8903 10.8125H27.4844C27.7662 10.8125 28.0364 10.7006 28.2357 10.5013C28.4349 10.302 28.5469 10.0318 28.5469 9.75C28.5469 9.46821 28.4349 9.19796 28.2357 8.9987C28.0364 8.79944 27.7662 8.6875 27.4844 8.6875H23.6764C23.5174 7.78067 23.0842 6.94438 22.4352 6.29135C21.7863 5.63833 20.9527 5.19996 20.0469 5.03533V1.25ZM9.96446 7.10083C13.1347 6.74947 16.3341 6.74947 19.5043 7.10083C20.5994 7.22408 21.4735 8.08967 21.5995 9.16775C21.9751 12.3783 21.9751 15.6217 21.5995 18.8323C21.533 19.3621 21.29 19.854 20.9096 20.2288C20.5292 20.6035 20.0336 20.8392 19.5029 20.8977C16.3331 21.2489 13.1342 21.2489 9.96446 20.8977C9.43396 20.8389 8.93873 20.6031 8.55862 20.2284C8.17851 19.8537 7.93566 19.3619 7.86921 18.8323C7.49373 15.6217 7.49373 12.3783 7.86921 9.16775C7.93572 8.63793 8.17878 8.14597 8.55917 7.77122C8.93957 7.39648 9.43512 7.16082 9.96587 7.10225L9.96446 7.10083Z" fill="black"/>
</g>
</svg>
