<svg width="19" height="18" viewBox="0 0 19 18" fill="none" xmlns="http://www.w3.org/2000/svg">
<path id="Vector" d="M18.2969 16.7363L13.8202 12.2596C15.0402 10.7675 15.64 8.86363 15.4956 6.94173C15.3512 5.01983 14.4736 3.22696 13.0444 1.93395C11.6152 0.640943 9.74363 -0.0532707 7.81691 -0.00509684C5.8902 0.043077 4.05571 0.829953 2.69289 2.19277C1.33007 3.55559 0.543199 5.39008 0.495025 7.31679C0.446851 9.2435 1.14107 11.115 2.43407 12.5443C3.72708 13.9735 5.51996 14.851 7.44185 14.9954C9.36375 15.1398 11.2676 14.54 12.7597 13.3201L17.2364 17.7968C17.3779 17.9334 17.5673 18.009 17.764 18.0073C17.9606 18.0056 18.1487 17.9267 18.2878 17.7877C18.4269 17.6486 18.5057 17.4605 18.5074 17.2639C18.5091 17.0672 18.4336 16.8778 18.2969 16.7363ZM8.01668 13.5166C6.82999 13.5166 5.66996 13.1647 4.68326 12.5054C3.69657 11.8461 2.92753 10.909 2.4734 9.81266C2.01928 8.7163 1.90046 7.5099 2.13197 6.34602C2.36348 5.18213 2.93493 4.11303 3.77404 3.27392C4.61316 2.4348 5.68225 1.86336 6.84614 1.63185C8.01003 1.40034 9.21643 1.51916 10.3128 1.97328C11.4091 2.42741 12.3462 3.19644 13.0055 4.18314C13.6648 5.16983 14.0167 6.32987 14.0167 7.51656C14.0149 9.10731 13.3822 10.6324 12.2573 11.7572C11.1325 12.8821 9.60743 13.5148 8.01668 13.5166Z" fill="#6C6C6C"/>
</svg>
