<svg width="16" height="16" viewBox="0 0 16 16" fill="none" xmlns="http://www.w3.org/2000/svg">
<path id="Vector" d="M15.4119 0.587847C15.1728 0.345932 14.8755 0.16975 14.5485 0.0763241C14.2215 -0.0171018 13.8759 -0.024614 13.5452 0.0545132L2.87853 2.30118C2.26424 2.38542 1.68568 2.6395 1.20799 3.03479C0.730307 3.43008 0.372468 3.95089 0.174776 4.53856C-0.0229158 5.12623 -0.0526088 5.75742 0.0890411 6.36106C0.230691 6.96469 0.538057 7.51679 0.976526 7.95518L2.12186 9.09985C2.18385 9.16182 2.23301 9.2354 2.26653 9.3164C2.30005 9.39739 2.31726 9.48419 2.31719 9.57185V11.6838C2.31866 11.9808 2.38702 12.2736 2.51719 12.5405L2.51186 12.5452L2.52919 12.5625C2.72454 12.9553 3.04358 13.2729 3.43719 13.4665L3.45453 13.4838L3.45919 13.4785C3.7261 13.6087 4.01891 13.677 4.31586 13.6785H6.42786C6.60456 13.6784 6.77409 13.7484 6.89919 13.8732L8.04386 15.0178C8.35088 15.3283 8.71629 15.5748 9.11905 15.7434C9.5218 15.9119 9.95393 15.9991 10.3905 15.9998C10.7544 15.9994 11.1157 15.94 11.4605 15.8238C12.0428 15.6326 12.5601 15.2825 12.954 14.813C13.3479 14.3435 13.6028 13.7732 13.6899 13.1665L15.9399 2.47651C16.0231 2.14294 16.0182 1.79346 15.9256 1.46236C15.8331 1.13125 15.656 0.829893 15.4119 0.587847ZM3.06586 8.15851L1.91986 7.01385C1.65301 6.75342 1.46597 6.42228 1.38072 6.05928C1.29546 5.69629 1.31551 5.31651 1.43853 4.96451C1.55779 4.6034 1.77826 4.28413 2.07372 4.04469C2.36919 3.80525 2.7272 3.6557 3.10519 3.61385L13.6659 1.39051L3.64919 11.4085V9.57185C3.6502 9.3094 3.59917 9.04937 3.49904 8.80677C3.39891 8.56418 3.25168 8.34384 3.06586 8.15851ZM12.3799 12.9385C12.3287 13.3067 12.1759 13.6534 11.9386 13.9396C11.7013 14.2258 11.389 14.4402 11.0366 14.5587C10.6843 14.6773 10.3058 14.6953 9.94382 14.6107C9.5818 14.5261 9.25054 14.3423 8.98719 14.0798L7.84053 12.9332C7.65544 12.7471 7.43529 12.5995 7.19281 12.4991C6.95033 12.3986 6.69033 12.3472 6.42786 12.3478H4.59119L14.6092 2.33318L12.3799 12.9385Z" fill="#262626"/>
</svg>
