<svg width="19" height="20" viewBox="0 0 19 20" fill="none" xmlns="http://www.w3.org/2000/svg">
<path d="M17 3.33333H14.4166C14.2232 2.39284 13.7115 1.54779 12.9677 0.940598C12.2239 0.333408 11.2935 0.0012121 10.3333 0L8.66663 0C7.70646 0.0012121 6.77606 0.333408 6.03225 0.940598C5.28844 1.54779 4.77671 2.39284 4.58329 3.33333H1.99996C1.77895 3.33333 1.56698 3.42113 1.4107 3.57741C1.25442 3.73369 1.16663 3.94565 1.16663 4.16667C1.16663 4.38768 1.25442 4.59964 1.4107 4.75592C1.56698 4.9122 1.77895 5 1.99996 5H2.83329V15.8333C2.83462 16.938 3.27403 17.997 4.05514 18.7782C4.83626 19.5593 5.8953 19.9987 6.99996 20H12C13.1046 19.9987 14.1637 19.5593 14.9448 18.7782C15.7259 17.997 16.1653 16.938 16.1666 15.8333V5H17C17.221 5 17.4329 4.9122 17.5892 4.75592C17.7455 4.59964 17.8333 4.38768 17.8333 4.16667C17.8333 3.94565 17.7455 3.73369 17.5892 3.57741C17.4329 3.42113 17.221 3.33333 17 3.33333ZM8.66663 1.66667H10.3333C10.8502 1.6673 11.3542 1.82781 11.7763 2.1262C12.1984 2.42459 12.5178 2.84624 12.6908 3.33333H6.30913C6.48211 2.84624 6.80154 2.42459 7.22361 2.1262C7.64569 1.82781 8.14973 1.6673 8.66663 1.66667ZM14.5 15.8333C14.5 16.4964 14.2366 17.1323 13.7677 17.6011C13.2989 18.0699 12.663 18.3333 12 18.3333H6.99996C6.33692 18.3333 5.70103 18.0699 5.23219 17.6011C4.76335 17.1323 4.49996 16.4964 4.49996 15.8333V5H14.5V15.8333Z" fill="#C1C1C1"/>
<path d="M7.83333 14.9997C8.05435 14.9997 8.26631 14.9119 8.42259 14.7556C8.57887 14.5993 8.66666 14.3873 8.66666 14.1663V9.16634C8.66666 8.94533 8.57887 8.73337 8.42259 8.57709C8.26631 8.42081 8.05435 8.33301 7.83333 8.33301C7.61232 8.33301 7.40036 8.42081 7.24408 8.57709C7.0878 8.73337 7 8.94533 7 9.16634V14.1663C7 14.3873 7.0878 14.5993 7.24408 14.7556C7.40036 14.9119 7.61232 14.9997 7.83333 14.9997Z" fill="#C1C1C1"/>
<path d="M11.1665 14.9997C11.3875 14.9997 11.5995 14.9119 11.7558 14.7556C11.9121 14.5993 11.9999 14.3873 11.9999 14.1663V9.16634C11.9999 8.94533 11.9121 8.73337 11.7558 8.57709C11.5995 8.42081 11.3875 8.33301 11.1665 8.33301C10.9455 8.33301 10.7336 8.42081 10.5773 8.57709C10.421 8.73337 10.3332 8.94533 10.3332 9.16634V14.1663C10.3332 14.3873 10.421 14.5993 10.5773 14.7556C10.7336 14.9119 10.9455 14.9997 11.1665 14.9997Z" fill="#C1C1C1"/>
</svg>
