<svg width="16" height="20" viewBox="0 0 16 20" fill="none" xmlns="http://www.w3.org/2000/svg">
<g id="Group 2">
<path id="Vector" d="M8 9.99988C8.98891 9.99988 9.95561 9.70663 10.7779 9.15723C11.6001 8.60782 12.241 7.82693 12.6194 6.9133C12.9978 5.99967 13.0969 4.99433 12.9039 4.02443C12.711 3.05452 12.2348 2.16361 11.5355 1.46435C10.8363 0.765084 9.94536 0.28888 8.97545 0.0959538C8.00555 -0.0969723 7.00021 0.00204436 6.08658 0.380483C5.17295 0.758921 4.39206 1.39978 3.84265 2.22203C3.29324 3.04427 3 4.01097 3 4.99988C3.00132 6.32556 3.52853 7.59656 4.46593 8.53395C5.40332 9.47135 6.67432 9.99856 8 9.99988ZM8 1.66655C8.65927 1.66655 9.30374 1.86204 9.8519 2.22831C10.4001 2.59459 10.8273 3.11518 11.0796 3.72427C11.3319 4.33336 11.3979 5.00358 11.2693 5.65018C11.1407 6.29678 10.8232 6.89073 10.357 7.3569C9.89085 7.82308 9.2969 8.14055 8.6503 8.26917C8.0037 8.39778 7.33348 8.33177 6.72439 8.07948C6.1153 7.82719 5.59471 7.39994 5.22844 6.85178C4.86216 6.30362 4.66667 5.65915 4.66667 4.99988C4.66667 4.11583 5.01786 3.26798 5.64298 2.64286C6.2681 2.01774 7.11595 1.66655 8 1.66655Z" fill="#262626"/>
<path id="Vector_2" d="M8 11.6669C6.01155 11.6691 4.10518 12.46 2.69914 13.866C1.29309 15.272 0.502206 17.1784 0.5 19.1669C0.5 19.3879 0.587797 19.5998 0.744078 19.7561C0.900358 19.9124 1.11232 20.0002 1.33333 20.0002C1.55435 20.0002 1.76631 19.9124 1.92259 19.7561C2.07887 19.5998 2.16667 19.3879 2.16667 19.1669C2.16667 17.6198 2.78125 16.136 3.87521 15.0421C4.96917 13.9481 6.4529 13.3335 8 13.3335C9.5471 13.3335 11.0308 13.9481 12.1248 15.0421C13.2188 16.136 13.8333 17.6198 13.8333 19.1669C13.8333 19.3879 13.9211 19.5998 14.0774 19.7561C14.2337 19.9124 14.4457 20.0002 14.6667 20.0002C14.8877 20.0002 15.0996 19.9124 15.2559 19.7561C15.4122 19.5998 15.5 19.3879 15.5 19.1669C15.4978 17.1784 14.7069 15.272 13.3009 13.866C11.8948 12.46 9.98845 11.6691 8 11.6669Z" fill="#262626"/>
</g>
</svg>
