<svg width="28" height="24" viewBox="0 0 28 24" fill="none" xmlns="http://www.w3.org/2000/svg">
<g id="Group">
<path id="Vector" d="M13.7351 21.9997C15.114 21.9997 16.2319 20.8819 16.2319 19.5029C16.2319 18.124 15.114 17.0061 13.7351 17.0061C12.3561 17.0061 11.2383 18.124 11.2383 19.5029C11.2383 20.8819 12.3561 21.9997 13.7351 21.9997Z" stroke="black" stroke-width="2.2" stroke-linecap="round" stroke-linejoin="round"/>
<path id="Vector_2" d="M9.02657 13.8996C9.64634 13.2634 10.3873 12.7577 11.2056 12.4124C12.024 12.0671 12.9032 11.8892 13.7915 11.8892C14.6797 11.8892 15.5589 12.0671 16.3773 12.4124C17.1957 12.7577 17.9366 13.2634 18.5564 13.8996M4.89062 10.6785C6.05081 9.51159 7.43025 8.58552 8.94962 7.95359C10.469 7.32166 12.0983 6.99634 13.7438 6.99634C15.3894 6.99634 17.0187 7.32166 18.538 7.95359C20.0574 8.58552 21.4368 9.51159 22.597 10.6785" stroke="black" stroke-width="2.2" stroke-linecap="round" stroke-linejoin="round"/>
<path id="Vector_3" d="M1.3457 7.13348C2.97232 5.50602 4.90365 4.215 7.02936 3.33418C9.15507 2.45336 11.4335 2 13.7345 2C16.0354 2 18.3139 2.45336 20.4396 3.33418C22.5653 4.215 24.4966 5.50602 26.1232 7.13348" stroke="black" stroke-width="2.2" stroke-linecap="round" stroke-linejoin="round"/>
</g>
</svg>
