<svg width="22" height="22" viewBox="0 0 22 22" fill="none" xmlns="http://www.w3.org/2000/svg">
<path d="M19.4006 1.06743L19.4005 1.06746L10.9998 9.46818L2.5991 1.06746L2.59907 1.06743C2.39592 0.864336 2.12042 0.750244 1.83316 0.750244C1.54589 0.750244 1.27039 0.864336 1.06724 1.06743L1.06719 1.06748C0.864092 1.27064 0.75 1.54614 0.75 1.8334C0.75 2.12066 0.864092 2.39616 1.06719 2.59932L1.06721 2.59934L9.46793 11.0001L1.06721 19.4008L1.06718 19.4008C0.864092 19.604 0.75 19.8795 0.75 20.1667C0.75 20.454 0.864092 20.7295 1.06719 20.9326L1.06724 20.9327C1.27039 21.1358 1.54589 21.2499 1.83316 21.2499C2.12042 21.2499 2.39592 21.1358 2.59907 20.9327L2.5991 20.9327L10.9998 12.532L19.4005 20.9327L19.4006 20.9327C19.6037 21.1358 19.8792 21.2499 20.1665 21.2499C20.4538 21.2499 20.7292 21.1358 20.9324 20.9327L20.9325 20.9326C21.1356 20.7295 21.2496 20.454 21.2496 20.1667C21.2496 19.8795 21.1356 19.604 20.9325 19.4008L20.9324 19.4008L12.5317 11.0001L20.9324 2.59934L20.9325 2.59932C21.1356 2.39616 21.2496 2.12066 21.2496 1.8334C21.2496 1.54614 21.1356 1.27064 20.9325 1.06748L20.9324 1.06743C20.7292 0.864336 20.4538 0.750244 20.1665 0.750244C19.8792 0.750244 19.6037 0.864336 19.4006 1.06743Z" fill="#262626" stroke="#262626" stroke-width="0.5"/>
</svg>
