<svg width="18" height="18" viewBox="0 0 18 18" fill="none" xmlns="http://www.w3.org/2000/svg">
<rect width="18" height="18" rx="9" fill="#F1F1F1"/>
<g clip-path="url(#clip0_1537_4786)">
<path fill-rule="evenodd" clip-rule="evenodd" d="M10.0941 6.709C9.40388 6.63248 8.70735 6.63248 8.01717 6.709C7.5014 6.76644 7.08327 7.17308 7.02238 7.69518C6.94046 8.39581 6.94046 9.1036 7.02238 9.80422C7.08327 10.3269 7.5014 10.7324 8.01717 10.7904C8.70181 10.8668 9.40942 10.8668 10.0941 10.7904C10.3468 10.7623 10.5826 10.6496 10.7632 10.4705C10.9438 10.2915 11.0585 10.0567 11.0888 9.80422C11.171 9.10351 11.171 8.39589 11.0888 7.69518C11.0585 7.4427 10.9438 7.20789 10.7632 7.02886C10.5826 6.84983 10.3468 6.73711 10.0941 6.709ZM8.11252 7.56537C8.73397 7.49645 9.37726 7.49645 9.99871 7.56537C10.0579 7.57191 10.1132 7.59809 10.1558 7.63973C10.1984 7.68137 10.2258 7.73608 10.2336 7.79512C10.3077 8.42921 10.3077 9.07019 10.2336 9.70428C10.2257 9.76341 10.1983 9.81818 10.1556 9.85983C10.1129 9.90148 10.0574 9.92761 9.99814 9.93403C9.37151 10.0034 8.73914 10.0034 8.11252 9.93403C8.05332 9.92749 7.99802 9.90131 7.95544 9.85967C7.91286 9.81803 7.88546 9.76332 7.8776 9.70428C7.80351 9.07005 7.80351 8.42935 7.8776 7.79512C7.88548 7.73599 7.91297 7.68122 7.95567 7.63957C7.99836 7.59792 8.05379 7.57179 8.11309 7.56537H8.11252Z" fill="black"/>
<path fill-rule="evenodd" clip-rule="evenodd" d="M11.207 3.58067C11.207 3.46642 11.1616 3.35686 11.0808 3.27607C11 3.19529 10.8904 3.1499 10.7762 3.1499C10.662 3.1499 10.5524 3.19529 10.4716 3.27607C10.3908 3.35686 10.3454 3.46642 10.3454 3.58067V5.03035C10.0586 5.01022 9.77135 4.99682 9.48389 4.99015V4.15503C9.48389 4.04078 9.43851 3.93122 9.35772 3.85043C9.27694 3.76965 9.16737 3.72426 9.05312 3.72426C8.93888 3.72426 8.82931 3.76965 8.74853 3.85043C8.66774 3.93122 8.62236 4.04078 8.62236 4.15503V4.99015C8.3349 4.99682 8.04764 5.01022 7.76082 5.03035V3.58067C7.76082 3.46642 7.71543 3.35686 7.63465 3.27607C7.55386 3.19529 7.44429 3.1499 7.33005 3.1499C7.2158 3.1499 7.10623 3.19529 7.02545 3.27607C6.94466 3.35686 6.89928 3.46642 6.89928 3.58067V5.11536C6.53203 5.1821 6.19407 5.35983 5.93096 5.62459C5.66785 5.88934 5.49223 6.2284 5.42777 6.59606H3.88389C3.76965 6.59606 3.66008 6.64144 3.57929 6.72223C3.49851 6.80301 3.45312 6.91258 3.45312 7.02683C3.45312 7.14107 3.49851 7.25064 3.57929 7.33142C3.66008 7.41221 3.76965 7.45759 3.88389 7.45759H5.34104C5.32037 7.74477 5.30658 8.03195 5.29911 8.31913H4.45825C4.34401 8.31913 4.23444 8.36452 4.15365 8.4453C4.07287 8.52609 4.02748 8.63565 4.02748 8.7499C4.02748 8.86415 4.07287 8.97372 4.15365 9.0545C4.23444 9.13529 4.34401 9.18067 4.45825 9.18067H5.29911C5.30658 9.46785 5.32037 9.75503 5.34104 10.0422H3.88389C3.76965 10.0422 3.66008 10.0876 3.57929 10.1684C3.49851 10.2492 3.45312 10.3587 3.45312 10.473C3.45312 10.5872 3.49851 10.6968 3.57929 10.7776C3.66008 10.8584 3.76965 10.9037 3.88389 10.9037H5.42777C5.49223 11.2714 5.66785 11.6105 5.93096 11.8752C6.19407 12.14 6.53203 12.3177 6.89928 12.3844V13.9191C6.89928 14.0334 6.94466 14.1429 7.02545 14.2237C7.10623 14.3045 7.2158 14.3499 7.33005 14.3499C7.44429 14.3499 7.55386 14.3045 7.63465 14.2237C7.71543 14.1429 7.76082 14.0334 7.76082 13.9191V12.4694C8.04685 12.4896 8.3346 12.5033 8.62236 12.5097V13.3448C8.62236 13.459 8.66774 13.5686 8.74853 13.6494C8.82931 13.7302 8.93888 13.7755 9.05312 13.7755C9.16737 13.7755 9.27694 13.7302 9.35772 13.6494C9.43851 13.5686 9.48389 13.459 9.48389 13.3448V12.5097C9.77135 12.503 10.0586 12.4896 10.3454 12.4694V13.9191C10.3454 14.0334 10.3908 14.1429 10.4716 14.2237C10.5524 14.3045 10.662 14.3499 10.7762 14.3499C10.8904 14.3499 11 14.3045 11.0808 14.2237C11.1616 14.1429 11.207 14.0334 11.207 13.9191V12.3844C11.5742 12.3177 11.9122 12.14 12.1753 11.8752C12.4384 11.6105 12.614 11.2714 12.6785 10.9037H14.2224C14.3366 10.9037 14.4462 10.8584 14.527 10.7776C14.6077 10.6968 14.6531 10.5872 14.6531 10.473C14.6531 10.3587 14.6077 10.2492 14.527 10.1684C14.4462 10.0876 14.3366 10.0422 14.2224 10.0422H12.7652C12.7859 9.75503 12.7997 9.46785 12.8071 9.18067H13.648C13.7622 9.18067 13.8718 9.13529 13.9526 9.0545C14.0334 8.97372 14.0788 8.86415 14.0788 8.7499C14.0788 8.63565 14.0334 8.52609 13.9526 8.4453C13.8718 8.36452 13.7622 8.31913 13.648 8.31913H12.8071C12.7997 8.03195 12.7859 7.74477 12.7652 7.45759H14.2224C14.3366 7.45759 14.4462 7.41221 14.527 7.33142C14.6077 7.25064 14.6531 7.14107 14.6531 7.02683C14.6531 6.91258 14.6077 6.80301 14.527 6.72223C14.4462 6.64144 14.3366 6.59606 14.2224 6.59606H12.6785C12.614 6.2284 12.4384 5.88934 12.1753 5.62459C11.9122 5.35983 11.5742 5.1821 11.207 5.11536V3.58067ZM7.11926 5.95277C8.40457 5.81032 9.70168 5.81032 10.987 5.95277C11.431 6.00274 11.7854 6.35368 11.8365 6.79076C11.9887 8.09242 11.9887 9.40738 11.8365 10.709C11.8095 10.9238 11.711 11.1233 11.5567 11.2752C11.4025 11.4272 11.2016 11.5227 10.9864 11.5465C9.7013 11.6888 8.40438 11.6888 7.11926 11.5465C6.90418 11.5226 6.7034 11.427 6.54929 11.2751C6.39518 11.1231 6.29672 10.9238 6.26978 10.709C6.11755 9.40738 6.11755 8.09242 6.26978 6.79076C6.29675 6.57596 6.39529 6.3765 6.54951 6.22457C6.70374 6.07264 6.90465 5.97709 7.11983 5.95335L7.11926 5.95277Z" fill="black"/>
</g>
<defs>
<clipPath id="clip0_1537_4786">
<rect width="12" height="12" fill="white" transform="translate(3 3)"/>
</clipPath>
</defs>
</svg>
